<svg width="68" height="68" viewBox="0 0 68 68" fill="none" xmlns="http://www.w3.org/2000/svg">
<path d="M62.2854 34.8147C62.1441 40.3893 60.347 45.791 57.1214 50.3366C53.8959 54.8823 49.3867 58.3678 44.1642 60.3523C38.9416 62.3368 33.2402 62.7313 27.7809 61.4858C22.3217 60.2403 17.3498 57.4108 13.4939 53.3551C9.63809 49.2994 7.07149 44.1996 6.1187 38.7007C5.16592 33.2018 5.86973 27.5507 8.14115 22.462C10.4126 17.3734 14.1496 13.0757 18.8796 10.1125C23.6096 7.14932 29.1202 5.65366 34.7145 5.81468" stroke="#21212E" stroke-width="11"/>
<path d="M34.1226 62.1967C28.5263 62.2244 23.0484 60.5978 18.3818 57.5227C13.7151 54.4475 10.0692 50.0619 7.90514 44.9204C5.74107 39.7789 5.156 34.1125 6.22393 28.6376C7.29186 23.1628 9.96483 18.1254 13.9048 14.1626C17.8448 10.1998 22.8748 7.48942 28.3589 6.3743C33.8429 5.25918 39.5346 5.78937 44.7142 7.89784C49.8938 10.0063 54.3287 13.5983 57.4581 18.2197C60.5874 22.8411 62.2707 28.2842 62.295 33.8608" stroke="#9C0A35" stroke-width="11" stroke-linecap="round"/>
</svg>
