<svg width="24" height="24" viewBox="0 0 24 24" fill="none" xmlns="http://www.w3.org/2000/svg">
<path d="M6.00165 14.2533C7.24521 14.2533 8.25331 13.2452 8.25331 12.0017C8.25331 10.7581 7.24521 9.75 6.00165 9.75C4.7581 9.75 3.75 10.7581 3.75 12.0017C3.75 13.2452 4.7581 14.2533 6.00165 14.2533Z" stroke="white" stroke-width="2" stroke-linecap="round" stroke-linejoin="round"/>
<path d="M18.0017 7.50526C19.2452 7.50526 20.2533 6.49716 20.2533 5.25361C20.2533 4.01005 19.2452 3.00195 18.0017 3.00195C16.7581 3.00195 15.75 4.01005 15.75 5.25361C15.75 6.49716 16.7581 7.50526 18.0017 7.50526Z" stroke="white" stroke-width="2" stroke-linecap="round" stroke-linejoin="round"/>
<path d="M18.0017 21.0043C19.2452 21.0043 20.2533 19.9962 20.2533 18.7526C20.2533 17.5091 19.2452 16.501 18.0017 16.501C16.7581 16.501 15.75 17.5091 15.75 18.7526C15.75 19.9962 16.7581 21.0043 18.0017 21.0043Z" stroke="white" stroke-width="2" stroke-linecap="round" stroke-linejoin="round"/>
<path d="M7.95898 13.105L16.0386 17.6497" stroke="white" stroke-width="2" stroke-linecap="round" stroke-linejoin="round"/>
<path d="M16.0386 6.35352L7.95898 10.8982" stroke="white" stroke-width="2" stroke-linecap="round" stroke-linejoin="round"/>
</svg>
