<svg width="48" height="53" viewBox="0 0 48 53" fill="none" xmlns="http://www.w3.org/2000/svg">
<g filter="url(#filter0_f_3754_19362)">
<rect x="12.0586" y="6" width="24" height="24" rx="12" fill="#B9B9C9"/>
</g>
<path fill-rule="evenodd" clip-rule="evenodd" d="M17.3331 16.1262C17.0586 16.7229 17.0586 17.4018 17.0586 18.7595V22.9999C17.0586 24.8856 17.0586 25.8284 17.6444 26.4142C18.1759 26.9457 19.0014 26.9949 20.5586 26.9995V22C20.5586 20.8954 21.454 20 22.5586 20H25.5586C26.6632 20 27.5586 20.8954 27.5586 22V26.9995C29.1157 26.9949 29.9413 26.9457 30.4728 26.4142C31.0586 25.8284 31.0586 24.8856 31.0586 22.9999V18.7595C31.0586 17.4018 31.0586 16.7229 30.7841 16.1262C30.5097 15.5294 29.9942 15.0876 28.9633 14.204L27.9633 13.3469C26.1 11.7497 25.1684 10.9512 24.0586 10.9512C22.9488 10.9512 22.0172 11.7497 20.1538 13.3469L19.1538 14.204C18.123 15.0876 17.6075 15.5294 17.3331 16.1262ZM25.5586 26.9999V22H22.5586V26.9999H25.5586Z" fill="#9C0A35"/>
<path d="M2.01971 50V42.3H7.24471L7.23371 43.51H3.08671L3.41671 43.169L3.42771 50H2.01971ZM5.77699 49.989L5.84299 48.834C5.89432 48.8413 5.94199 48.8487 5.98599 48.856C6.02999 48.8633 6.07032 48.867 6.10699 48.867C6.33432 48.867 6.51032 48.7973 6.63499 48.658C6.75965 48.5187 6.85132 48.3317 6.90999 48.097C6.97599 47.855 7.01999 47.5873 7.04199 47.294C7.07132 46.9933 7.09332 46.6927 7.10799 46.392L7.20699 44.126H11.959V50H10.584V44.918L10.903 45.292H8.10899L8.40599 44.907L8.32899 46.458C8.30699 46.9787 8.26299 47.4627 8.19699 47.91C8.13832 48.35 8.04299 48.735 7.91099 49.065C7.78632 49.395 7.61032 49.6517 7.38299 49.835C7.16299 50.0183 6.88065 50.11 6.53599 50.11C6.42599 50.11 6.30499 50.099 6.17299 50.077C6.04832 50.055 5.91632 50.0257 5.77699 49.989ZM17.3748 50V48.812L17.2978 48.559V46.48C17.2978 46.0767 17.1768 45.765 16.9348 45.545C16.6928 45.3177 16.3261 45.204 15.8348 45.204C15.5048 45.204 15.1784 45.2553 14.8558 45.358C14.5404 45.4607 14.2728 45.6037 14.0528 45.787L13.5138 44.786C13.8291 44.544 14.2031 44.3643 14.6358 44.247C15.0758 44.1223 15.5304 44.06 15.9998 44.06C16.8504 44.06 17.5068 44.2653 17.9688 44.676C18.4381 45.0793 18.6728 45.7063 18.6728 46.557V50H17.3748ZM15.5268 50.077C15.0868 50.077 14.7018 50.0037 14.3718 49.857C14.0418 49.703 13.7851 49.494 13.6018 49.23C13.4258 48.9587 13.3378 48.6543 13.3378 48.317C13.3378 47.987 13.4148 47.69 13.5688 47.426C13.7301 47.162 13.9904 46.953 14.3498 46.799C14.7091 46.645 15.1858 46.568 15.7798 46.568H17.4848V47.481H15.8788C15.4094 47.481 15.0941 47.558 14.9328 47.712C14.7714 47.8587 14.6908 48.042 14.6908 48.262C14.6908 48.5113 14.7898 48.7093 14.9878 48.856C15.1858 49.0027 15.4608 49.076 15.8128 49.076C16.1501 49.076 16.4508 48.999 16.7148 48.845C16.9861 48.691 17.1804 48.4637 17.2978 48.163L17.5288 48.988C17.3968 49.3327 17.1584 49.6003 16.8138 49.791C16.4764 49.9817 16.0474 50.077 15.5268 50.077ZM20.3742 50V44.126H23.2452C23.9566 44.126 24.5139 44.258 24.9172 44.522C25.3279 44.786 25.5332 45.16 25.5332 45.644C25.5332 46.1207 25.3426 46.4947 24.9612 46.766C24.5799 47.03 24.0739 47.162 23.4432 47.162L23.6082 46.821C24.3196 46.821 24.8476 46.953 25.1922 47.217C25.5442 47.4737 25.7202 47.8513 25.7202 48.35C25.7202 48.8707 25.5259 49.2777 25.1372 49.571C24.7486 49.857 24.1582 50 23.3662 50H20.3742ZM21.6832 48.999H23.2562C23.6302 48.999 23.9126 48.9403 24.1032 48.823C24.2939 48.6983 24.3892 48.5113 24.3892 48.262C24.3892 47.998 24.3012 47.8037 24.1252 47.679C23.9492 47.5543 23.6742 47.492 23.3002 47.492H21.6832V48.999ZM21.6832 46.579H23.1242C23.4762 46.579 23.7402 46.5167 23.9162 46.392C24.0996 46.26 24.1912 46.0767 24.1912 45.842C24.1912 45.6 24.0996 45.4203 23.9162 45.303C23.7402 45.1857 23.4762 45.127 23.1242 45.127H21.6832V46.579ZM27.1848 50V44.126H28.5598V46.513H31.5188V44.126H32.8938V50H31.5188V47.679H28.5598V50H27.1848ZM38.3005 50V48.812L38.2235 48.559V46.48C38.2235 46.0767 38.1025 45.765 37.8605 45.545C37.6185 45.3177 37.2519 45.204 36.7605 45.204C36.4305 45.204 36.1042 45.2553 35.7815 45.358C35.4662 45.4607 35.1985 45.6037 34.9785 45.787L34.4395 44.786C34.7549 44.544 35.1289 44.3643 35.5615 44.247C36.0015 44.1223 36.4562 44.06 36.9255 44.06C37.7762 44.06 38.4325 44.2653 38.8945 44.676C39.3639 45.0793 39.5985 45.7063 39.5985 46.557V50H38.3005ZM36.4525 50.077C36.0125 50.077 35.6275 50.0037 35.2975 49.857C34.9675 49.703 34.7109 49.494 34.5275 49.23C34.3515 48.9587 34.2635 48.6543 34.2635 48.317C34.2635 47.987 34.3405 47.69 34.4945 47.426C34.6559 47.162 34.9162 46.953 35.2755 46.799C35.6349 46.645 36.1115 46.568 36.7055 46.568H38.4105V47.481H36.8045C36.3352 47.481 36.0199 47.558 35.8585 47.712C35.6972 47.8587 35.6165 48.042 35.6165 48.262C35.6165 48.5113 35.7155 48.7093 35.9135 48.856C36.1115 49.0027 36.3865 49.076 36.7385 49.076C37.0759 49.076 37.3765 48.999 37.6405 48.845C37.9119 48.691 38.1062 48.4637 38.2235 48.163L38.4545 48.988C38.3225 49.3327 38.0842 49.6003 37.7395 49.791C37.4022 49.9817 36.9732 50.077 36.4525 50.077ZM45.029 50V47.998L45.227 48.229H43.467C42.6604 48.229 42.026 48.0603 41.564 47.723C41.1094 47.3783 40.882 46.8833 40.882 46.238C40.882 45.5487 41.124 45.0243 41.608 44.665C42.0994 44.3057 42.752 44.126 43.566 44.126H46.261V50H45.029ZM40.805 50L42.389 47.756H43.797L42.279 50H40.805ZM45.029 47.558V44.918L45.227 45.281H43.61C43.1847 45.281 42.8547 45.3617 42.62 45.523C42.3927 45.677 42.279 45.93 42.279 46.282C42.279 46.942 42.708 47.272 43.566 47.272H45.227L45.029 47.558Z" fill="#9C0A35"/>
<defs>
<filter id="filter0_f_3754_19362" x="6.05859" y="0" width="36" height="36" filterUnits="userSpaceOnUse" color-interpolation-filters="sRGB">
<feFlood flood-opacity="0" result="BackgroundImageFix"/>
<feBlend mode="normal" in="SourceGraphic" in2="BackgroundImageFix" result="shape"/>
<feGaussianBlur stdDeviation="3" result="effect1_foregroundBlur_3754_19362"/>
</filter>
</defs>
</svg>
