<svg width="55" height="47" viewBox="0 0 55 47" fill="none" xmlns="http://www.w3.org/2000/svg">
<path fill-rule="evenodd" clip-rule="evenodd" d="M23.8702 4.79613C21.1969 6.09112 19.3535 8.83028 19.3535 12C19.3535 12.1969 19.3606 12.3921 19.3746 12.5855L25.5164 10.9398L23.8702 4.79613ZM26.7684 4.02107L28.5436 10.6463L28.5552 10.6897C28.6052 10.8754 28.6758 11.1373 28.7067 11.3775C28.7457 11.6802 28.7549 12.159 28.4732 12.6469C28.1915 13.1348 27.7723 13.3662 27.4906 13.4838C27.2672 13.5771 27.005 13.647 26.8192 13.6965L26.7758 13.7081L20.1498 15.4836C21.4448 18.1567 24.1839 20 27.3535 20C31.7718 20 35.3535 16.4183 35.3535 12C35.3535 7.58172 31.7718 4 27.3535 4C27.1567 4 26.9616 4.00711 26.7684 4.02107Z" fill="#828282"/>
<path d="M25.283 4.27259C25.032 3.33602 24.9065 2.86773 24.4744 2.67286C24.0422 2.47799 23.6607 2.66782 22.8979 3.04748C22.3238 3.33321 21.7771 3.67419 21.2659 4.06647C20.2241 4.8659 19.3499 5.86272 18.6933 7C18.0367 8.13728 17.6105 9.39275 17.4391 10.6947C17.355 11.3336 17.333 11.9775 17.3726 12.6176C17.4252 13.4681 17.4515 13.8933 17.8364 14.1701C18.2212 14.447 18.6895 14.3215 19.6261 14.0706L25.4217 12.5176C26.3323 12.2736 26.7877 12.1516 26.9948 11.7929C27.2019 11.4342 27.0799 10.9788 26.8359 10.0681L25.283 4.27259Z" fill="#828282"/>
<path d="M4.72935 43.505C3.76135 43.505 2.93635 43.373 2.25435 43.109C1.57969 42.845 1.06268 42.4637 0.703352 41.965C0.344018 41.459 0.164352 40.8503 0.164352 40.139C0.164352 39.413 0.344018 38.8007 0.703352 38.302C1.06268 37.8033 1.57969 37.422 2.25435 37.158C2.93635 36.894 3.76135 36.762 4.72935 36.762C4.74402 36.762 4.77702 36.762 4.82835 36.762C4.88702 36.762 4.94202 36.762 4.99335 36.762C5.05202 36.762 5.08502 36.762 5.09235 36.762C6.05302 36.762 6.87069 36.894 7.54535 37.158C8.22002 37.422 8.73335 37.807 9.08535 38.313C9.43735 38.8117 9.61335 39.4203 9.61335 40.139C9.61335 40.843 9.43735 41.448 9.08535 41.954C8.74069 42.46 8.23469 42.845 7.56735 43.109C6.90735 43.373 6.10069 43.505 5.14735 43.505C5.13269 43.505 5.09235 43.505 5.02635 43.505C4.96769 43.505 4.90535 43.505 4.83935 43.505C4.78069 43.505 4.74402 43.505 4.72935 43.505ZM4.87235 42.394C4.88702 42.394 4.90902 42.394 4.93835 42.394C4.96769 42.394 4.98602 42.394 4.99335 42.394C5.70469 42.3867 6.29869 42.2987 6.77535 42.13C7.25935 41.9613 7.62235 41.712 7.86435 41.382C8.11369 41.0447 8.23835 40.6267 8.23835 40.128C8.23835 39.6293 8.11369 39.215 7.86435 38.885C7.61502 38.555 7.25202 38.3057 6.77535 38.137C6.29869 37.9683 5.71202 37.884 5.01535 37.884C5.00802 37.884 4.98602 37.884 4.94935 37.884C4.91269 37.884 4.88702 37.884 4.87235 37.884C4.14635 37.884 3.53402 37.9683 3.03535 38.137C2.54402 38.2983 2.17369 38.5477 1.92435 38.885C1.68235 39.215 1.56135 39.633 1.56135 40.139C1.56135 40.645 1.68968 41.0667 1.94635 41.404C2.21035 41.734 2.58802 41.9833 3.07935 42.152C3.57069 42.3133 4.16835 42.394 4.87235 42.394ZM4.23435 44.308V35.992H5.55435V44.308H4.23435ZM10.9611 44V38.126H12.3361V41.998L15.5811 38.126H16.8351V44H15.4601V40.128L12.2261 44H10.9611ZM18.6847 44V38.126H20.0597V40.513H23.0187V38.126H24.3937V44H23.0187V41.679H20.0597V44H18.6847ZM29.8005 44V42.812L29.7235 42.559V40.48C29.7235 40.0767 29.6025 39.765 29.3605 39.545C29.1185 39.3177 28.7518 39.204 28.2605 39.204C27.9305 39.204 27.6042 39.2553 27.2815 39.358C26.9662 39.4607 26.6985 39.6037 26.4785 39.787L25.9395 38.786C26.2548 38.544 26.6288 38.3643 27.0615 38.247C27.5015 38.1223 27.9562 38.06 28.4255 38.06C29.2762 38.06 29.9325 38.2653 30.3945 38.676C30.8638 39.0793 31.0985 39.7063 31.0985 40.557V44H29.8005ZM27.9525 44.077C27.5125 44.077 27.1275 44.0037 26.7975 43.857C26.4675 43.703 26.2108 43.494 26.0275 43.23C25.8515 42.9587 25.7635 42.6543 25.7635 42.317C25.7635 41.987 25.8405 41.69 25.9945 41.426C26.1558 41.162 26.4162 40.953 26.7755 40.799C27.1348 40.645 27.6115 40.568 28.2055 40.568H29.9105V41.481H28.3045C27.8352 41.481 27.5198 41.558 27.3585 41.712C27.1972 41.8587 27.1165 42.042 27.1165 42.262C27.1165 42.5113 27.2155 42.7093 27.4135 42.856C27.6115 43.0027 27.8865 43.076 28.2385 43.076C28.5758 43.076 28.8765 42.999 29.1405 42.845C29.4118 42.691 29.6062 42.4637 29.7235 42.163L29.9545 42.988C29.8225 43.3327 29.5842 43.6003 29.2395 43.791C28.9022 43.9817 28.4732 44.077 27.9525 44.077ZM32.8 44V38.126H34.175V40.513H37.134V38.126H38.509V44H37.134V41.679H34.175V44H32.8ZM43.0247 44.077C42.4087 44.077 41.8587 43.9487 41.3747 43.692C40.8981 43.428 40.5241 43.0687 40.2527 42.614C39.9814 42.1593 39.8457 41.6423 39.8457 41.063C39.8457 40.4763 39.9814 39.9593 40.2527 39.512C40.5241 39.0573 40.8981 38.7017 41.3747 38.445C41.8587 38.1883 42.4087 38.06 43.0247 38.06C43.5967 38.06 44.0991 38.1773 44.5317 38.412C44.9717 38.6393 45.3054 38.9767 45.5327 39.424L44.4767 40.04C44.3007 39.7613 44.0844 39.556 43.8277 39.424C43.5784 39.292 43.3071 39.226 43.0137 39.226C42.6764 39.226 42.3721 39.2993 42.1007 39.446C41.8294 39.5927 41.6167 39.8053 41.4627 40.084C41.3087 40.3553 41.2317 40.6817 41.2317 41.063C41.2317 41.4443 41.3087 41.7743 41.4627 42.053C41.6167 42.3243 41.8294 42.5333 42.1007 42.68C42.3721 42.8267 42.6764 42.9 43.0137 42.9C43.3071 42.9 43.5784 42.834 43.8277 42.702C44.0844 42.57 44.3007 42.3647 44.4767 42.086L45.5327 42.702C45.3054 43.142 44.9717 43.483 44.5317 43.725C44.0991 43.9597 43.5967 44.077 43.0247 44.077ZM52.6723 44V38.126H54.0473V44H52.6723ZM49.6033 40.062C50.3587 40.062 50.9307 40.2307 51.3193 40.568C51.7153 40.9053 51.9133 41.382 51.9133 41.998C51.9133 42.636 51.6933 43.1347 51.2533 43.494C50.8207 43.846 50.2047 44.0183 49.4053 44.011L46.7433 44V38.126H48.1183V40.051L49.6033 40.062ZM49.2843 42.999C49.6877 43.0063 49.9957 42.922 50.2083 42.746C50.421 42.57 50.5273 42.3133 50.5273 41.976C50.5273 41.6387 50.421 41.3967 50.2083 41.25C50.003 41.096 49.695 41.0153 49.2843 41.008L48.1183 40.997V42.988L49.2843 42.999Z" fill="#828282"/>
</svg>
