<svg width="54" height="47" viewBox="0 0 54 47" fill="none" xmlns="http://www.w3.org/2000/svg">
<path d="M35.0477 20.4471C34.5919 19.1713 33.5876 18.0439 32.1904 17.2399C30.7933 16.4358 29.0814 16 27.3203 16C25.5592 16 23.8474 16.4358 22.4502 17.2399C21.0531 18.0439 20.0487 19.1713 19.5929 20.4471" stroke="#828282" stroke-width="2" stroke-linecap="round"/>
<circle cx="27.3203" cy="8" r="4" stroke="#828282" stroke-width="2" stroke-linecap="round"/>
<path d="M2.13345 44V36.3H8.61245V44H7.80945V36.784L8.01845 37.004H2.72745L2.93645 36.784V44H2.13345ZM14.0046 44.055C13.5059 44.055 13.0549 43.9413 12.6516 43.714C12.2483 43.4793 11.9256 43.1457 11.6836 42.713C11.4489 42.273 11.3316 41.7377 11.3316 41.107C11.3316 40.4763 11.4489 39.9447 11.6836 39.512C11.9183 39.072 12.2373 38.7383 12.6406 38.511C13.0439 38.2837 13.4986 38.17 14.0046 38.17C14.5546 38.17 15.0459 38.2947 15.4786 38.544C15.9186 38.786 16.2633 39.1307 16.5126 39.578C16.7619 40.018 16.8866 40.5277 16.8866 41.107C16.8866 41.6937 16.7619 42.207 16.5126 42.647C16.2633 43.087 15.9186 43.4317 15.4786 43.681C15.0459 43.9303 14.5546 44.055 14.0046 44.055ZM11.0236 46.134V38.225H11.7716V39.963L11.6946 41.118L11.8046 42.284V46.134H11.0236ZM13.9496 43.362C14.3603 43.362 14.7269 43.2703 15.0496 43.087C15.3723 42.8963 15.6289 42.6323 15.8196 42.295C16.0103 41.9503 16.1056 41.5543 16.1056 41.107C16.1056 40.6597 16.0103 40.2673 15.8196 39.93C15.6289 39.5927 15.3723 39.3287 15.0496 39.138C14.7269 38.9473 14.3603 38.852 13.9496 38.852C13.5389 38.852 13.1686 38.9473 12.8386 39.138C12.5159 39.3287 12.2593 39.5927 12.0686 39.93C11.8853 40.2673 11.7936 40.6597 11.7936 41.107C11.7936 41.5543 11.8853 41.9503 12.0686 42.295C12.2593 42.6323 12.5159 42.8963 12.8386 43.087C13.1686 43.2703 13.5389 43.362 13.9496 43.362ZM20.9406 44.055C20.3833 44.055 19.8809 43.9303 19.4336 43.681C18.9936 43.4243 18.6453 43.076 18.3886 42.636C18.1319 42.1887 18.0036 41.679 18.0036 41.107C18.0036 40.5277 18.1319 40.018 18.3886 39.578C18.6453 39.138 18.9936 38.7933 19.4336 38.544C19.8736 38.2947 20.3759 38.17 20.9406 38.17C21.5126 38.17 22.0186 38.2947 22.4586 38.544C22.9059 38.7933 23.2543 39.138 23.5036 39.578C23.7603 40.018 23.8886 40.5277 23.8886 41.107C23.8886 41.679 23.7603 42.1887 23.5036 42.636C23.2543 43.076 22.9059 43.4243 22.4586 43.681C22.0113 43.9303 21.5053 44.055 20.9406 44.055ZM20.9406 43.362C21.3586 43.362 21.7289 43.2703 22.0516 43.087C22.3743 42.8963 22.6273 42.6323 22.8106 42.295C23.0013 41.9503 23.0966 41.5543 23.0966 41.107C23.0966 40.6523 23.0013 40.2563 22.8106 39.919C22.6273 39.5817 22.3743 39.3213 22.0516 39.138C21.7289 38.9473 21.3623 38.852 20.9516 38.852C20.5409 38.852 20.1743 38.9473 19.8516 39.138C19.5289 39.3213 19.2723 39.5817 19.0816 39.919C18.8909 40.2563 18.7956 40.6523 18.7956 41.107C18.7956 41.5543 18.8909 41.9503 19.0816 42.295C19.2723 42.6323 19.5289 42.8963 19.8516 43.087C20.1743 43.2703 20.5373 43.362 20.9406 43.362ZM28.8028 44.066C28.8028 44.066 28.7881 44.066 28.7588 44.066C28.7294 44.066 28.7001 44.066 28.6708 44.066C28.6488 44.066 28.6304 44.066 28.6158 44.066C27.4718 44.0587 26.5808 43.7983 25.9428 43.285C25.3048 42.7717 24.9858 42.042 24.9858 41.096C24.9858 40.1647 25.3048 39.446 25.9428 38.94C26.5881 38.4267 27.4938 38.1663 28.6598 38.159C28.6671 38.159 28.6818 38.159 28.7038 38.159C28.7331 38.159 28.7588 38.159 28.7808 38.159C28.8028 38.159 28.8174 38.159 28.8248 38.159C29.9981 38.1663 30.9111 38.4267 31.5638 38.94C32.2164 39.446 32.5428 40.1647 32.5428 41.096C32.5428 42.0493 32.2128 42.7827 31.5528 43.296C30.9001 43.8093 29.9834 44.066 28.8028 44.066ZM28.7918 43.384C29.4444 43.384 29.9908 43.296 30.4308 43.12C30.8708 42.9367 31.2044 42.6763 31.4318 42.339C31.6591 42.0017 31.7728 41.5873 31.7728 41.096C31.7728 40.6193 31.6591 40.216 31.4318 39.886C31.2044 39.5487 30.8708 39.292 30.4308 39.116C29.9908 38.94 29.4444 38.852 28.7918 38.852C28.7844 38.852 28.7624 38.852 28.7258 38.852C28.6964 38.852 28.6781 38.852 28.6708 38.852C28.0328 38.852 27.4974 38.9437 27.0648 39.127C26.6321 39.303 26.3058 39.556 26.0858 39.886C25.8658 40.216 25.7558 40.6193 25.7558 41.096C25.7558 41.58 25.8658 41.9907 26.0858 42.328C26.3131 42.6653 26.6431 42.9257 27.0758 43.109C27.5084 43.285 28.0401 43.3767 28.6708 43.384C28.6854 43.384 28.7074 43.384 28.7368 43.384C28.7661 43.384 28.7844 43.384 28.7918 43.384ZM28.3738 46.134V35.838H29.1328V46.134H28.3738ZM34.1945 44V38.225H34.9755V42.812L38.8365 38.225H39.5295V44H38.7485V39.402L34.8985 44H34.1945ZM40.7117 43.989L40.7667 43.318C40.8181 43.3253 40.8657 43.3363 40.9097 43.351C40.9611 43.3583 41.0051 43.362 41.0417 43.362C41.2764 43.362 41.4634 43.274 41.6027 43.098C41.7494 42.922 41.8594 42.6873 41.9327 42.394C42.0061 42.1007 42.0574 41.7707 42.0867 41.404C42.1161 41.03 42.1417 40.656 42.1637 40.282L42.2627 38.225H46.4977V44H45.7167V38.676L45.9147 38.907H42.7687L42.9557 38.665L42.8677 40.337C42.8457 40.8357 42.8054 41.3123 42.7467 41.767C42.6954 42.2217 42.6111 42.6213 42.4937 42.966C42.3837 43.3107 42.2297 43.582 42.0317 43.78C41.8337 43.9707 41.5807 44.066 41.2727 44.066C41.1847 44.066 41.0931 44.0587 40.9977 44.044C40.9097 44.0293 40.8144 44.011 40.7117 43.989ZM51.2039 40.26C51.9299 40.2673 52.4799 40.4287 52.8539 40.744C53.2353 41.0593 53.4259 41.514 53.4259 42.108C53.4259 42.724 53.2206 43.197 52.8099 43.527C52.4066 43.857 51.8199 44.0183 51.0499 44.011L48.7179 44V38.225H49.4989V40.238L51.2039 40.26ZM51.0059 43.417C51.5413 43.4243 51.9446 43.318 52.2159 43.098C52.4946 42.8707 52.6339 42.5407 52.6339 42.108C52.6339 41.6753 52.4983 41.36 52.2269 41.162C51.9556 40.9567 51.5486 40.8503 51.0059 40.843L49.4989 40.821V43.395L51.0059 43.417Z" fill="#828282"/>
</svg>
