<svg width="69" height="47" viewBox="0 0 69 47" fill="none" xmlns="http://www.w3.org/2000/svg">
<rect x="25.4121" y="6" width="18" height="15" rx="2" stroke="#9C0A35" stroke-width="2"/>
<path d="M25.4121 10C25.4121 8.11438 25.4121 7.17157 25.9979 6.58579C26.5837 6 27.5265 6 29.4121 6H39.4121C41.2977 6 42.2405 6 42.8263 6.58579C43.4121 7.17157 43.4121 8.11438 43.4121 10H25.4121Z" fill="#9C0A35"/>
<path d="M29.4121 3L29.4121 6" stroke="#9C0A35" stroke-width="2" stroke-linecap="round"/>
<path d="M39.4121 3L39.4121 6" stroke="#9C0A35" stroke-width="2" stroke-linecap="round"/>
<path d="M0.889309 44V36.3H3.77131C4.42398 36.3 4.98498 36.4063 5.45431 36.619C5.92364 36.8243 6.28298 37.125 6.53231 37.521C6.78898 37.9097 6.91731 38.3827 6.91731 38.94C6.91731 39.4827 6.78898 39.952 6.53231 40.348C6.28298 40.7367 5.92364 41.0373 5.45431 41.25C4.98498 41.4627 4.42398 41.569 3.77131 41.569H1.34031L1.70331 41.184V44H0.889309ZM1.70331 41.25L1.34031 40.854H3.74931C4.51931 40.854 5.10231 40.689 5.49831 40.359C5.90164 40.0217 6.10331 39.5487 6.10331 38.94C6.10331 38.324 5.90164 37.8473 5.49831 37.51C5.10231 37.1727 4.51931 37.004 3.74931 37.004H1.34031L1.70331 36.619V41.25ZM11.926 44V42.724L11.893 42.515V40.381C11.893 39.8897 11.7537 39.512 11.475 39.248C11.2037 38.984 10.7967 38.852 10.254 38.852C9.88 38.852 9.52434 38.9143 9.187 39.039C8.84967 39.1637 8.56367 39.3287 8.329 39.534L7.977 38.951C8.27034 38.7017 8.62234 38.511 9.033 38.379C9.44367 38.2397 9.87634 38.17 10.331 38.17C11.079 38.17 11.6547 38.357 12.058 38.731C12.4687 39.0977 12.674 39.6587 12.674 40.414V44H11.926ZM9.935 44.055C9.50234 44.055 9.12467 43.9853 8.802 43.846C8.48667 43.6993 8.24467 43.5013 8.076 43.252C7.90734 42.9953 7.823 42.702 7.823 42.372C7.823 42.0713 7.89267 41.8 8.032 41.558C8.17867 41.3087 8.41334 41.1107 8.736 40.964C9.066 40.81 9.506 40.733 10.056 40.733H12.047V41.316H10.078C9.52067 41.316 9.132 41.415 8.912 41.613C8.69934 41.811 8.593 42.0567 8.593 42.35C8.593 42.68 8.72134 42.944 8.978 43.142C9.23467 43.34 9.594 43.439 10.056 43.439C10.496 43.439 10.8737 43.34 11.189 43.142C11.5117 42.9367 11.7463 42.6433 11.893 42.262L12.069 42.801C11.9223 43.1823 11.6657 43.4867 11.299 43.714C10.9397 43.9413 10.485 44.055 9.935 44.055ZM17.1731 44.055C16.6011 44.055 16.0878 43.9303 15.6331 43.681C15.1858 43.4243 14.8338 43.076 14.5771 42.636C14.3204 42.1887 14.1921 41.679 14.1921 41.107C14.1921 40.5277 14.3204 40.018 14.5771 39.578C14.8338 39.138 15.1858 38.7933 15.6331 38.544C16.0878 38.2947 16.6011 38.17 17.1731 38.17C17.6644 38.17 18.1081 38.2653 18.5041 38.456C18.9001 38.6467 19.2118 38.9327 19.4391 39.314L18.8561 39.71C18.6581 39.4167 18.4124 39.2003 18.1191 39.061C17.8258 38.9217 17.5068 38.852 17.1621 38.852C16.7514 38.852 16.3811 38.9473 16.0511 39.138C15.7211 39.3213 15.4608 39.5817 15.2701 39.919C15.0794 40.2563 14.9841 40.6523 14.9841 41.107C14.9841 41.5617 15.0794 41.9577 15.2701 42.295C15.4608 42.6323 15.7211 42.8963 16.0511 43.087C16.3811 43.2703 16.7514 43.362 17.1621 43.362C17.5068 43.362 17.8258 43.2923 18.1191 43.153C18.4124 43.0137 18.6581 42.801 18.8561 42.515L19.4391 42.911C19.2118 43.285 18.9001 43.571 18.5041 43.769C18.1081 43.9597 17.6644 44.055 17.1731 44.055ZM20.9513 44V38.225H26.1433V44H25.3623V38.698L25.5603 38.907H21.5343L21.7323 38.698V44H20.9513ZM28.3634 44V38.225H29.1444V42.812L33.0054 38.225H33.6984V44H32.9174V39.402L29.0674 44H28.3634ZM38.3567 44.055C37.7847 44.055 37.2714 43.9303 36.8167 43.681C36.3694 43.4243 36.0174 43.076 35.7607 42.636C35.504 42.1887 35.3757 41.679 35.3757 41.107C35.3757 40.5277 35.504 40.018 35.7607 39.578C36.0174 39.138 36.3694 38.7933 36.8167 38.544C37.2714 38.2947 37.7847 38.17 38.3567 38.17C38.848 38.17 39.2917 38.2653 39.6877 38.456C40.0837 38.6467 40.3954 38.9327 40.6227 39.314L40.0397 39.71C39.8417 39.4167 39.596 39.2003 39.3027 39.061C39.0094 38.9217 38.6904 38.852 38.3457 38.852C37.935 38.852 37.5647 38.9473 37.2347 39.138C36.9047 39.3213 36.6444 39.5817 36.4537 39.919C36.263 40.2563 36.1677 40.6523 36.1677 41.107C36.1677 41.5617 36.263 41.9577 36.4537 42.295C36.6444 42.6323 36.9047 42.8963 37.2347 43.087C37.5647 43.2703 37.935 43.362 38.3457 43.362C38.6904 43.362 39.0094 43.2923 39.3027 43.153C39.596 43.0137 39.8417 42.801 40.0397 42.515L40.6227 42.911C40.3954 43.285 40.0837 43.571 39.6877 43.769C39.2917 43.9597 38.848 44.055 38.3567 44.055ZM45.7209 44V42.724L45.6879 42.515V40.381C45.6879 39.8897 45.5486 39.512 45.2699 39.248C44.9986 38.984 44.5916 38.852 44.0489 38.852C43.6749 38.852 43.3193 38.9143 42.9819 39.039C42.6446 39.1637 42.3586 39.3287 42.1239 39.534L41.7719 38.951C42.0653 38.7017 42.4173 38.511 42.8279 38.379C43.2386 38.2397 43.6713 38.17 44.1259 38.17C44.8739 38.17 45.4496 38.357 45.8529 38.731C46.2636 39.0977 46.4689 39.6587 46.4689 40.414V44H45.7209ZM43.7299 44.055C43.2973 44.055 42.9196 43.9853 42.5969 43.846C42.2816 43.6993 42.0396 43.5013 41.8709 43.252C41.7023 42.9953 41.6179 42.702 41.6179 42.372C41.6179 42.0713 41.6876 41.8 41.8269 41.558C41.9736 41.3087 42.2083 41.1107 42.5309 40.964C42.8609 40.81 43.3009 40.733 43.8509 40.733H45.8419V41.316H43.8729C43.3156 41.316 42.9269 41.415 42.7069 41.613C42.4943 41.811 42.3879 42.0567 42.3879 42.35C42.3879 42.68 42.5163 42.944 42.7729 43.142C43.0296 43.34 43.3889 43.439 43.8509 43.439C44.2909 43.439 44.6686 43.34 44.9839 43.142C45.3066 42.9367 45.5413 42.6433 45.6879 42.262L45.8639 42.801C45.7173 43.1823 45.4606 43.4867 45.0939 43.714C44.7346 43.9413 44.2799 44.055 43.7299 44.055ZM48.548 44V38.225H49.329V40.777H52.97V38.225H53.751V44H52.97V41.448H49.329V44H48.548ZM55.9709 44V38.225H56.7519V42.812L60.6129 38.225H61.3059V44H60.5249V39.402L56.6749 44H55.9709ZM66.0191 44.055C65.4178 44.055 64.8898 43.9303 64.4351 43.681C63.9804 43.4243 63.6248 43.076 63.3681 42.636C63.1114 42.1887 62.9831 41.679 62.9831 41.107C62.9831 40.535 63.1041 40.029 63.3461 39.589C63.5954 39.149 63.9328 38.8043 64.3581 38.555C64.7908 38.2983 65.2748 38.17 65.8101 38.17C66.3528 38.17 66.8331 38.2947 67.2511 38.544C67.6764 38.786 68.0101 39.1307 68.2521 39.578C68.4941 40.018 68.6151 40.5277 68.6151 41.107C68.6151 41.1437 68.6114 41.184 68.6041 41.228C68.6041 41.2647 68.6041 41.305 68.6041 41.349H63.5771V40.766H68.1861L67.8781 40.997C67.8781 40.579 67.7864 40.2087 67.6031 39.886C67.4271 39.556 67.1851 39.2993 66.8771 39.116C66.5691 38.9327 66.2134 38.841 65.8101 38.841C65.4141 38.841 65.0584 38.9327 64.7431 39.116C64.4278 39.2993 64.1821 39.556 64.0061 39.886C63.8301 40.216 63.7421 40.5937 63.7421 41.019V41.14C63.7421 41.58 63.8374 41.9687 64.0281 42.306C64.2261 42.636 64.4974 42.8963 64.8421 43.087C65.1941 43.2703 65.5938 43.362 66.0411 43.362C66.3931 43.362 66.7194 43.2997 67.0201 43.175C67.3281 43.0503 67.5921 42.8597 67.8121 42.603L68.2521 43.109C67.9954 43.417 67.6728 43.6517 67.2841 43.813C66.9028 43.9743 66.4811 44.055 66.0191 44.055Z" fill="#9C0A35"/>
</svg>
