<svg width="25" height="47" viewBox="0 0 25 47" fill="none" xmlns="http://www.w3.org/2000/svg">
<path d="M20.1462 5.77772C20.8203 6.78661 20.8203 8.19108 20.8203 11C20.8203 13.8089 20.8203 15.2134 20.1462 16.2223C19.8544 16.659 19.4794 17.034 19.0426 17.3259C18.1612 17.9148 16.978 17.9892 14.8203 17.9986V18L13.7147 20.2111C13.3462 20.9482 12.2944 20.9482 11.9259 20.2111L10.8203 18V17.9986C8.66261 17.9892 7.47938 17.9148 6.59803 17.3259C6.16127 17.034 5.78627 16.659 5.49443 16.2223C4.82031 15.2134 4.82031 13.8089 4.82031 11C4.82031 8.19108 4.82031 6.78661 5.49443 5.77772C5.78627 5.34096 6.16127 4.96596 6.59803 4.67412C7.60693 4 9.01139 4 11.8203 4H13.8203C16.6292 4 18.0337 4 19.0426 4.67412C19.4794 4.96596 19.8544 5.34096 20.1462 5.77772Z" stroke="#828282" stroke-width="2" stroke-linecap="round" stroke-linejoin="round"/>
<circle cx="20.3203" cy="4.5" r="3.5" fill="#828282"/>
<path d="M9.82031 9L15.8203 9" stroke="#828282" stroke-width="2" stroke-linecap="round" stroke-linejoin="round"/>
<path d="M9.82031 13H12.8203" stroke="#828282" stroke-width="2" stroke-linecap="round" stroke-linejoin="round"/>
<path d="M9.07421 40.744C8.63421 40.942 8.19421 41.0923 7.75421 41.195C7.32154 41.2977 6.90354 41.349 6.50021 41.349C5.59821 41.349 4.89421 41.1327 4.38821 40.7C3.88954 40.26 3.64021 39.6403 3.64021 38.841V36.3H4.44321V38.753C4.44321 39.347 4.63021 39.809 5.00421 40.139C5.38554 40.469 5.90988 40.634 6.57721 40.634C6.97321 40.634 7.38388 40.5827 7.80921 40.48C8.23454 40.37 8.65621 40.216 9.07421 40.018V40.744ZM8.93121 44V36.3H9.72321V44H8.93121ZM15.7341 44V42.724L15.7011 42.515V40.381C15.7011 39.8897 15.5618 39.512 15.2831 39.248C15.0118 38.984 14.6048 38.852 14.0621 38.852C13.6881 38.852 13.3324 38.9143 12.9951 39.039C12.6578 39.1637 12.3718 39.3287 12.1371 39.534L11.7851 38.951C12.0784 38.7017 12.4304 38.511 12.8411 38.379C13.2518 38.2397 13.6844 38.17 14.1391 38.17C14.8871 38.17 15.4628 38.357 15.8661 38.731C16.2768 39.0977 16.4821 39.6587 16.4821 40.414V44H15.7341ZM13.7431 44.055C13.3104 44.055 12.9328 43.9853 12.6101 43.846C12.2948 43.6993 12.0528 43.5013 11.8841 43.252C11.7154 42.9953 11.6311 42.702 11.6311 42.372C11.6311 42.0713 11.7008 41.8 11.8401 41.558C11.9868 41.3087 12.2214 41.1107 12.5441 40.964C12.8741 40.81 13.3141 40.733 13.8641 40.733H15.8551V41.316H13.8861C13.3288 41.316 12.9401 41.415 12.7201 41.613C12.5074 41.811 12.4011 42.0567 12.4011 42.35C12.4011 42.68 12.5294 42.944 12.7861 43.142C13.0428 43.34 13.4021 43.439 13.8641 43.439C14.3041 43.439 14.6818 43.34 14.9971 43.142C15.3198 42.9367 15.5544 42.6433 15.7011 42.262L15.8771 42.801C15.7304 43.1823 15.4738 43.4867 15.1071 43.714C14.7478 43.9413 14.2931 44.055 13.7431 44.055ZM19.6612 44V38.698L19.8592 38.907H17.4722V38.225H22.6312V38.907H20.2442L20.4422 38.698V44H19.6612Z" fill="#828282"/>
</svg>
