<svg width="30" height="20" viewBox="0 0 30 29" fill="none" xmlns="http://www.w3.org/2000/svg">
<path d="M21.7394 19.1376L13.7266 9.85742M21.7394 9.85742L13.7266 19.1376" stroke="#F0F0F0" stroke-width="3" stroke-linecap="round"/>
<path d="M8.9188 3.3604C9.16759 2.97622 9.4902 2.66439 9.86107 2.44962C10.2319 2.23486 10.6409 2.12305 11.0556 2.12305H25.7457C26.4541 2.12305 27.1335 2.44896 27.6344 3.02908C28.1353 3.6092 28.4167 4.39602 28.4167 5.21644V23.7768C28.4167 24.5972 28.1353 25.384 27.6344 25.9641C27.1335 26.5443 26.4541 26.8702 25.7457 26.8702H11.0556C10.6409 26.8702 10.2319 26.7584 9.86107 26.5436C9.4902 26.3288 9.16759 26.017 8.9188 25.6328L2.90919 16.3526C2.56244 15.8172 2.375 15.1659 2.375 14.4966C2.375 13.8273 2.56244 13.176 2.90919 12.6406L8.9188 3.3604V3.3604Z" stroke="#F0F0F0" stroke-width="3" stroke-linecap="round" stroke-linejoin="round"/>
</svg>
