<svg width="53" height="47" viewBox="0 0 53 47" fill="none" xmlns="http://www.w3.org/2000/svg">
<path fill-rule="evenodd" clip-rule="evenodd" d="M19.6602 16.3818C19.9985 16.8987 20.3973 17.3772 20.8502 17.8065C21.9724 18.8701 23.3787 19.5858 24.8991 19.8668C26.4195 20.1479 27.9888 19.9824 29.4171 19.3903C30.8454 18.7982 32.0715 17.8049 32.9471 16.5305C33.8227 15.2562 34.3102 13.7554 34.3508 12.2098C34.3913 10.6641 33.983 9.13989 33.1754 7.82142C32.3678 6.50295 31.1954 5.44677 29.8001 4.78065C28.8558 4.32984 27.8367 4.07076 26.8014 4.0127L27.3566 6.08459C27.9017 6.17703 28.4343 6.34484 28.9384 6.58552C29.9849 7.08511 30.8642 7.87725 31.4699 8.8661C32.0756 9.85496 32.3818 10.9981 32.3514 12.1574C32.3211 13.3166 31.9554 14.4422 31.2987 15.3979C30.642 16.3537 29.7224 17.0987 28.6512 17.5428C27.58 17.9868 26.403 18.111 25.2627 17.9002C24.1224 17.6894 23.0677 17.1526 22.226 16.3549C22.0503 16.1883 21.8854 16.0119 21.7321 15.8267L19.6602 16.3818Z" fill="#828282"/>
<path d="M20.2659 4.06647C21.0428 3.47037 21.9015 2.99272 22.8139 2.64739C23.2333 2.48868 23.443 2.40932 23.6405 2.51053C23.8379 2.61174 23.9 2.84338 24.0241 3.30667L26.0947 11.0341C26.2167 11.4894 26.2777 11.7171 26.1742 11.8964C26.0706 12.0758 25.8429 12.1368 25.3876 12.2588L17.6602 14.3294C17.1969 14.4535 16.9653 14.5156 16.7789 14.3952C16.5925 14.2747 16.5564 14.0535 16.4841 13.6109C16.327 12.6481 16.3113 11.6656 16.4391 10.6947C16.6105 9.39275 17.0367 8.13728 17.6933 7C18.3499 5.86272 19.2241 4.8659 20.2659 4.06647Z" stroke="#828282" stroke-width="2"/>
<path d="M4.41556 43.472C3.4989 43.472 2.71423 43.3437 2.06156 43.087C1.4089 42.823 0.906563 42.4417 0.554563 41.943C0.202563 41.4443 0.0265625 40.843 0.0265625 40.139C0.0265625 39.435 0.202563 38.8373 0.554563 38.346C0.906563 37.8473 1.4089 37.466 2.06156 37.202C2.71423 36.938 3.4989 36.806 4.41556 36.806C4.4229 36.806 4.44123 36.806 4.47056 36.806C4.4999 36.806 4.52923 36.806 4.55856 36.806C4.5879 36.806 4.60623 36.806 4.61356 36.806C5.53756 36.806 6.3259 36.938 6.97856 37.202C7.63123 37.466 8.13356 37.8473 8.48556 38.346C8.83756 38.8373 9.01356 39.435 9.01356 40.139C9.01356 40.843 8.83756 41.4443 8.48556 41.943C8.1409 42.4417 7.64223 42.823 6.98956 43.087C6.3369 43.3437 5.5559 43.472 4.64656 43.472C4.6319 43.472 4.60623 43.472 4.56956 43.472C4.54023 43.472 4.50723 43.472 4.47056 43.472C4.44123 43.472 4.4229 43.472 4.41556 43.472ZM4.50356 42.834C4.51823 42.834 4.5329 42.834 4.54756 42.834C4.56223 42.834 4.57323 42.834 4.58056 42.834C5.35056 42.8267 6.0069 42.7203 6.54956 42.515C7.09956 42.3023 7.51756 41.998 7.80356 41.602C8.08956 41.1987 8.23256 40.711 8.23256 40.139C8.23256 39.5597 8.0859 39.072 7.79256 38.676C7.50656 38.28 7.09223 37.9793 6.54956 37.774C6.01423 37.5613 5.36523 37.455 4.60256 37.455C4.59523 37.455 4.58056 37.455 4.55856 37.455C4.53656 37.455 4.51823 37.455 4.50356 37.455C3.72623 37.455 3.06256 37.5577 2.51256 37.763C1.96256 37.9683 1.5409 38.2727 1.24756 38.676C0.954229 39.072 0.807563 39.5597 0.807563 40.139C0.807563 40.7257 0.954229 41.2207 1.24756 41.624C1.54823 42.02 1.97356 42.3207 2.52356 42.526C3.0809 42.7313 3.7409 42.834 4.50356 42.834ZM4.14056 44.264V36.036H4.89956V44.264H4.14056ZM10.6745 44V38.225H11.4555V42.812L15.3165 38.225H16.0095V44H15.2285V39.402L11.3785 44H10.6745ZM18.2477 44V38.225H19.0287V40.777H22.6697V38.225H23.4507V44H22.6697V41.448H19.0287V44H18.2477ZM29.2566 44V42.724L29.2236 42.515V40.381C29.2236 39.8897 29.0842 39.512 28.8056 39.248C28.5342 38.984 28.1272 38.852 27.5846 38.852C27.2106 38.852 26.8549 38.9143 26.5176 39.039C26.1802 39.1637 25.8942 39.3287 25.6596 39.534L25.3076 38.951C25.6009 38.7017 25.9529 38.511 26.3636 38.379C26.7742 38.2397 27.2069 38.17 27.6616 38.17C28.4096 38.17 28.9852 38.357 29.3886 38.731C29.7992 39.0977 30.0046 39.6587 30.0046 40.414V44H29.2566ZM27.2656 44.055C26.8329 44.055 26.4552 43.9853 26.1326 43.846C25.8172 43.6993 25.5752 43.5013 25.4066 43.252C25.2379 42.9953 25.1536 42.702 25.1536 42.372C25.1536 42.0713 25.2232 41.8 25.3626 41.558C25.5092 41.3087 25.7439 41.1107 26.0666 40.964C26.3966 40.81 26.8366 40.733 27.3866 40.733H29.3776V41.316H27.4086C26.8512 41.316 26.4626 41.415 26.2426 41.613C26.0299 41.811 25.9236 42.0567 25.9236 42.35C25.9236 42.68 26.0519 42.944 26.3086 43.142C26.5652 43.34 26.9246 43.439 27.3866 43.439C27.8266 43.439 28.2042 43.34 28.5196 43.142C28.8422 42.9367 29.0769 42.6433 29.2236 42.262L29.3996 42.801C29.2529 43.1823 28.9962 43.4867 28.6296 43.714C28.2702 43.9413 27.8156 44.055 27.2656 44.055ZM32.0837 44V38.225H32.8647V40.777H36.5057V38.225H37.2867V44H36.5057V41.448H32.8647V44H32.0837ZM41.9265 44.055C41.3545 44.055 40.8412 43.9303 40.3865 43.681C39.9392 43.4243 39.5872 43.076 39.3305 42.636C39.0738 42.1887 38.9455 41.679 38.9455 41.107C38.9455 40.5277 39.0738 40.018 39.3305 39.578C39.5872 39.138 39.9392 38.7933 40.3865 38.544C40.8412 38.2947 41.3545 38.17 41.9265 38.17C42.4178 38.17 42.8615 38.2653 43.2575 38.456C43.6535 38.6467 43.9652 38.9327 44.1925 39.314L43.6095 39.71C43.4115 39.4167 43.1658 39.2003 42.8725 39.061C42.5792 38.9217 42.2602 38.852 41.9155 38.852C41.5048 38.852 41.1345 38.9473 40.8045 39.138C40.4745 39.3213 40.2142 39.5817 40.0235 39.919C39.8328 40.2563 39.7375 40.6523 39.7375 41.107C39.7375 41.5617 39.8328 41.9577 40.0235 42.295C40.2142 42.6323 40.4745 42.8963 40.8045 43.087C41.1345 43.2703 41.5048 43.362 41.9155 43.362C42.2602 43.362 42.5792 43.2923 42.8725 43.153C43.1658 43.0137 43.4115 42.801 43.6095 42.515L44.1925 42.911C43.9652 43.285 43.6535 43.571 43.2575 43.769C42.8615 43.9597 42.4178 44.055 41.9265 44.055ZM51.3368 44V38.225H52.1178V44H51.3368ZM48.1358 40.26C48.8618 40.2673 49.4154 40.4287 49.7968 40.744C50.1781 41.0593 50.3688 41.514 50.3688 42.108C50.3688 42.724 50.1634 43.197 49.7528 43.527C49.3421 43.857 48.7554 44.0183 47.9928 44.011L45.7048 44V38.225H46.4858V40.238L48.1358 40.26ZM47.9378 43.417C48.4804 43.4243 48.8874 43.318 49.1588 43.098C49.4374 42.8707 49.5768 42.5407 49.5768 42.108C49.5768 41.6753 49.4411 41.36 49.1698 41.162C48.8984 40.9567 48.4878 40.8503 47.9378 40.843L46.4858 40.821V43.395L47.9378 43.417Z" fill="#828282"/>
</svg>
