<svg width="55" height="53" viewBox="0 0 55 53" fill="none" xmlns="http://www.w3.org/2000/svg">
<g filter="url(#filter0_f_3438_21045)">
<rect x="15.3203" y="6" width="24" height="24" rx="12" fill="#B9B9C9"/>
</g>
<path d="M34.9718 25.4054C35.5246 25.2902 35.8539 24.7117 35.5792 24.2183C34.9736 23.1307 34.0196 22.1749 32.7991 21.4465C31.2273 20.5085 29.3015 20 27.3203 20C25.3391 20 23.4132 20.5085 21.8414 21.4465C20.621 22.1749 19.667 23.1307 19.0614 24.2183C18.7867 24.7117 19.1159 25.2902 19.6687 25.4054C24.7156 26.4572 29.925 26.4572 34.9718 25.4054Z" fill="#9C0A35"/>
<circle cx="27.3203" cy="14" r="5" fill="#9C0A35"/>
<path d="M1.31752 50V42.3H8.12652V50H6.71852V43.158L7.04852 43.51H2.39552L2.72552 43.158V50H1.31752ZM13.3997 50.077C12.9231 50.077 12.4867 49.967 12.0907 49.747C11.7021 49.527 11.3904 49.197 11.1557 48.757C10.9284 48.3097 10.8147 47.745 10.8147 47.063C10.8147 46.3737 10.9247 45.809 11.1447 45.369C11.3721 44.929 11.6801 44.6027 12.0687 44.39C12.4574 44.17 12.9011 44.06 13.3997 44.06C13.9791 44.06 14.4887 44.1847 14.9287 44.434C15.3761 44.6833 15.7281 45.0317 15.9847 45.479C16.2487 45.9263 16.3807 46.4543 16.3807 47.063C16.3807 47.6717 16.2487 48.2033 15.9847 48.658C15.7281 49.1053 15.3761 49.4537 14.9287 49.703C14.4887 49.9523 13.9791 50.077 13.3997 50.077ZM10.1437 52.134V44.126H11.4527V45.512L11.4087 47.074L11.5187 48.636V52.134H10.1437ZM13.2457 48.9C13.5757 48.9 13.8691 48.8267 14.1257 48.68C14.3897 48.5333 14.5987 48.3207 14.7527 48.042C14.9067 47.7633 14.9837 47.437 14.9837 47.063C14.9837 46.6817 14.9067 46.3553 14.7527 46.084C14.5987 45.8053 14.3897 45.5927 14.1257 45.446C13.8691 45.2993 13.5757 45.226 13.2457 45.226C12.9157 45.226 12.6187 45.2993 12.3547 45.446C12.0907 45.5927 11.8817 45.8053 11.7277 46.084C11.5737 46.3553 11.4967 46.6817 11.4967 47.063C11.4967 47.437 11.5737 47.7633 11.7277 48.042C11.8817 48.3207 12.0907 48.5333 12.3547 48.68C12.6187 48.8267 12.9157 48.9 13.2457 48.9ZM20.3672 50.077C19.7659 50.077 19.2305 49.9487 18.7612 49.692C18.2919 49.428 17.9215 49.0687 17.6502 48.614C17.3789 48.1593 17.2432 47.6423 17.2432 47.063C17.2432 46.4763 17.3789 45.9593 17.6502 45.512C17.9215 45.0573 18.2919 44.7017 18.7612 44.445C19.2305 44.1883 19.7659 44.06 20.3672 44.06C20.9759 44.06 21.5149 44.1883 21.9842 44.445C22.4609 44.7017 22.8312 45.0537 23.0952 45.501C23.3665 45.9483 23.5022 46.469 23.5022 47.063C23.5022 47.6423 23.3665 48.1593 23.0952 48.614C22.8312 49.0687 22.4609 49.428 21.9842 49.692C21.5149 49.9487 20.9759 50.077 20.3672 50.077ZM20.3672 48.9C20.7045 48.9 21.0052 48.8267 21.2692 48.68C21.5332 48.5333 21.7385 48.3207 21.8852 48.042C22.0392 47.7633 22.1162 47.437 22.1162 47.063C22.1162 46.6817 22.0392 46.3553 21.8852 46.084C21.7385 45.8053 21.5332 45.5927 21.2692 45.446C21.0052 45.2993 20.7082 45.226 20.3782 45.226C20.0409 45.226 19.7402 45.2993 19.4762 45.446C19.2195 45.5927 19.0142 45.8053 18.8602 46.084C18.7062 46.3553 18.6292 46.6817 18.6292 47.063C18.6292 47.437 18.7062 47.7633 18.8602 48.042C19.0142 48.3207 19.2195 48.5333 19.4762 48.68C19.7402 48.8267 20.0372 48.9 20.3672 48.9ZM28.5895 50.11C28.5822 50.11 28.5492 50.11 28.4905 50.11C28.4392 50.11 28.3879 50.11 28.3365 50.11C28.2925 50.11 28.2632 50.11 28.2485 50.11C27.0092 50.0953 26.0485 49.8277 25.3665 49.307C24.6845 48.779 24.3435 48.0273 24.3435 47.052C24.3435 46.084 24.6845 45.3433 25.3665 44.83C26.0485 44.3167 27.0202 44.0527 28.2815 44.038C28.2962 44.038 28.3255 44.038 28.3695 44.038C28.4209 44.038 28.4685 44.038 28.5125 44.038C28.5639 44.038 28.5932 44.038 28.6005 44.038C29.8692 44.038 30.8555 44.2983 31.5595 44.819C32.2709 45.3323 32.6265 46.0767 32.6265 47.052C32.6265 48.0347 32.2709 48.79 31.5595 49.318C30.8555 49.846 29.8655 50.11 28.5895 50.11ZM28.5455 48.966C29.1689 48.966 29.6822 48.8963 30.0855 48.757C30.4889 48.6103 30.7895 48.3977 30.9875 48.119C31.1855 47.833 31.2845 47.4773 31.2845 47.052C31.2845 46.634 31.1855 46.2893 30.9875 46.018C30.7895 45.7393 30.4889 45.534 30.0855 45.402C29.6822 45.2627 29.1689 45.193 28.5455 45.193C28.5309 45.193 28.4942 45.193 28.4355 45.193C28.3842 45.193 28.3512 45.193 28.3365 45.193C27.7279 45.193 27.2292 45.2663 26.8405 45.413C26.4519 45.5523 26.1622 45.7577 25.9715 46.029C25.7882 46.3003 25.6965 46.6413 25.6965 47.052C25.6965 47.47 25.7882 47.8183 25.9715 48.097C26.1622 48.3757 26.4519 48.5883 26.8405 48.735C27.2365 48.8817 27.7352 48.9587 28.3365 48.966C28.3512 48.966 28.3842 48.966 28.4355 48.966C28.4942 48.966 28.5309 48.966 28.5455 48.966ZM27.8305 52.134V41.838H29.1285V52.134H27.8305ZM33.9592 50V44.126H35.3342V47.998L38.5792 44.126H39.8332V50H38.4582V46.128L35.2242 50H33.9592ZM40.8248 49.989L40.8908 48.834C40.9421 48.8413 40.9898 48.8487 41.0338 48.856C41.0778 48.8633 41.1181 48.867 41.1548 48.867C41.3821 48.867 41.5581 48.7973 41.6828 48.658C41.8075 48.5187 41.8991 48.3317 41.9578 48.097C42.0238 47.855 42.0678 47.5873 42.0898 47.294C42.1191 46.9933 42.1411 46.6927 42.1558 46.392L42.2548 44.126H47.0068V50H45.6318V44.918L45.9508 45.292H43.1568L43.4538 44.907L43.3768 46.458C43.3548 46.9787 43.3108 47.4627 43.2448 47.91C43.1861 48.35 43.0908 48.735 42.9588 49.065C42.8341 49.395 42.6581 49.6517 42.4308 49.835C42.2108 50.0183 41.9285 50.11 41.5838 50.11C41.4738 50.11 41.3528 50.099 41.2208 50.077C41.0961 50.055 40.9641 50.0257 40.8248 49.989ZM51.8066 46.062C52.5619 46.062 53.1376 46.2307 53.5336 46.568C53.9296 46.9053 54.1276 47.382 54.1276 47.998C54.1276 48.636 53.9076 49.1347 53.4676 49.494C53.0276 49.846 52.4079 50.0183 51.6086 50.011L48.8586 50V44.126H50.2336V46.051L51.8066 46.062ZM51.4876 48.999C51.8909 49.0063 52.1989 48.922 52.4116 48.746C52.6242 48.57 52.7306 48.3133 52.7306 47.976C52.7306 47.6387 52.6242 47.3967 52.4116 47.25C52.2062 47.096 51.8982 47.0153 51.4876 47.008L50.2336 46.997V48.988L51.4876 48.999Z" fill="#9C0A35"/>
<defs>
<filter id="filter0_f_3438_21045" x="9.32031" y="0" width="36" height="36" filterUnits="userSpaceOnUse" color-interpolation-filters="sRGB">
<feFlood flood-opacity="0" result="BackgroundImageFix"/>
<feBlend mode="normal" in="SourceGraphic" in2="BackgroundImageFix" result="shape"/>
<feGaussianBlur stdDeviation="3" result="effect1_foregroundBlur_3438_21045"/>
</filter>
</defs>
</svg>
