<svg width="25" height="47" viewBox="0 0 25 47" fill="none" xmlns="http://www.w3.org/2000/svg">
<path d="M20.1462 5.77772C20.8203 6.78661 20.8203 8.19108 20.8203 11C20.8203 13.8089 20.8203 15.2134 20.1462 16.2223C19.8544 16.659 19.4794 17.034 19.0426 17.3259C18.1612 17.9148 16.978 17.9892 14.8203 17.9986V18L13.7147 20.2111C13.3462 20.9482 12.2944 20.9482 11.9259 20.2111L10.8203 18V17.9986C8.66261 17.9892 7.47938 17.9148 6.59803 17.3259C6.16127 17.034 5.78627 16.659 5.49443 16.2223C4.82031 15.2134 4.82031 13.8089 4.82031 11C4.82031 8.19108 4.82031 6.78661 5.49443 5.77772C5.78627 5.34096 6.16127 4.96596 6.59803 4.67412C7.60693 4 9.01139 4 11.8203 4H13.8203C16.6292 4 18.0337 4 19.0426 4.67412C19.4794 4.96596 19.8544 5.34096 20.1462 5.77772Z" stroke="#828282" stroke-width="2" stroke-linecap="round" stroke-linejoin="round"/>
<circle cx="20.3203" cy="4.5" r="3.5" fill="#9C0A35"/>
<path d="M9.82031 9L15.8203 9" stroke="#828282" stroke-width="2" stroke-linecap="round" stroke-linejoin="round"/>
<path d="M9.82031 13H12.8203" stroke="#828282" stroke-width="2" stroke-linecap="round" stroke-linejoin="round"/>
<path d="M9.07461 40.744C8.63461 40.942 8.19461 41.0923 7.75461 41.195C7.32194 41.2977 6.90394 41.349 6.50061 41.349C5.59861 41.349 4.89461 41.1327 4.38861 40.7C3.88994 40.26 3.64061 39.6403 3.64061 38.841V36.3H4.44361V38.753C4.44361 39.347 4.63061 39.809 5.00461 40.139C5.38594 40.469 5.91027 40.634 6.57761 40.634C6.97361 40.634 7.38427 40.5827 7.80961 40.48C8.23494 40.37 8.65661 40.216 9.07461 40.018V40.744ZM8.93161 44V36.3H9.72361V44H8.93161ZM15.7345 44V42.724L15.7015 42.515V40.381C15.7015 39.8897 15.5622 39.512 15.2835 39.248C15.0122 38.984 14.6052 38.852 14.0625 38.852C13.6885 38.852 13.3328 38.9143 12.9955 39.039C12.6582 39.1637 12.3722 39.3287 12.1375 39.534L11.7855 38.951C12.0788 38.7017 12.4308 38.511 12.8415 38.379C13.2522 38.2397 13.6848 38.17 14.1395 38.17C14.8875 38.17 15.4632 38.357 15.8665 38.731C16.2772 39.0977 16.4825 39.6587 16.4825 40.414V44H15.7345ZM13.7435 44.055C13.3108 44.055 12.9332 43.9853 12.6105 43.846C12.2952 43.6993 12.0532 43.5013 11.8845 43.252C11.7158 42.9953 11.6315 42.702 11.6315 42.372C11.6315 42.0713 11.7012 41.8 11.8405 41.558C11.9872 41.3087 12.2218 41.1107 12.5445 40.964C12.8745 40.81 13.3145 40.733 13.8645 40.733H15.8555V41.316H13.8865C13.3292 41.316 12.9405 41.415 12.7205 41.613C12.5078 41.811 12.4015 42.0567 12.4015 42.35C12.4015 42.68 12.5298 42.944 12.7865 43.142C13.0432 43.34 13.4025 43.439 13.8645 43.439C14.3045 43.439 14.6822 43.34 14.9975 43.142C15.3202 42.9367 15.5548 42.6433 15.7015 42.262L15.8775 42.801C15.7308 43.1823 15.4742 43.4867 15.1075 43.714C14.7482 43.9413 14.2935 44.055 13.7435 44.055ZM19.6616 44V38.698L19.8596 38.907H17.4726V38.225H22.6316V38.907H20.2446L20.4426 38.698V44H19.6616Z" fill="#828282"/>
</svg>
