<svg width="82" height="82" viewBox="0 0 82 82" fill="none" xmlns="http://www.w3.org/2000/svg">
    <path d="M30.7507 34.1668L43.6754 43.8604C44.0939 44.1743 44.6835 44.1126 45.028 43.7189L68.334 17.0835"
        stroke="#9C0A35" stroke-width="5" stroke-linecap="round" />
    <path
        d="M71.75 41C71.75 47.425 69.7375 53.6886 65.995 58.9112C62.2526 64.1337 56.9683 68.0528 50.8843 70.1181C44.8002 72.1834 38.2221 72.291 32.0737 70.4259C25.9254 68.5608 20.5157 64.8167 16.6044 59.7194C12.6931 54.6221 10.4767 48.4277 10.2665 42.0061C10.0562 35.5845 11.8628 29.2584 15.4323 23.9162C19.0019 18.574 24.1551 14.4841 30.1683 12.2209C36.1815 9.95768 42.7526 9.63487 48.9587 11.2978"
        stroke="#9C0A35" stroke-width="5" stroke-linecap="round" />
</svg>