<svg width="185" height="32" viewBox="0 0 185 32" fill="none" xmlns="http://www.w3.org/2000/svg">
<path d="M15.5121 3.08393C15.6617 2.62313 16.3136 2.62313 16.4632 3.08393L18.8771 10.5189C19.0778 11.1371 19.6539 11.5557 20.3038 11.5557H28.1171C28.6013 11.5557 28.8028 12.1753 28.4111 12.4601L22.0887 17.0571C21.5634 17.4391 21.3436 18.1158 21.5442 18.7335L23.9588 26.1707C24.1084 26.6314 23.581 27.0144 23.1892 26.7295L16.8698 22.1347C16.3439 21.7523 15.6314 21.7523 15.1055 22.1347L8.78614 26.7295C8.39435 27.0144 7.86695 26.6314 8.01653 26.1707L10.4311 18.7335C10.6317 18.1158 10.4119 17.4391 9.88658 17.0571L3.56421 12.4601C3.17254 12.1753 3.37399 11.5557 3.85825 11.5557H11.6715C12.3215 11.5557 12.8975 11.1371 13.0982 10.5189L15.5121 3.08393Z" stroke="white"/>
<path d="M54.3402 3.08393C54.4898 2.62313 55.1417 2.62313 55.2913 3.08393L57.7053 10.5189C57.906 11.1371 58.482 11.5557 59.1319 11.5557H66.9452C67.4294 11.5557 67.6309 12.1753 67.2392 12.4601L60.9169 17.0571C60.3915 17.4391 60.1717 18.1158 60.3723 18.7335L62.7869 26.1707C62.9365 26.6314 62.4091 27.0144 62.0173 26.7295L55.6979 22.1347C55.172 21.7523 54.4596 21.7523 53.9337 22.1347L47.6143 26.7295C47.2225 27.0144 46.6951 26.6314 46.8447 26.1707L49.2593 18.7335C49.4598 18.1158 49.24 17.4391 48.7147 17.0571L42.3923 12.4601C42.0007 12.1753 42.2021 11.5557 42.6864 11.5557H50.4996C51.1496 11.5557 51.7256 11.1371 51.9263 10.5189L54.3402 3.08393Z" stroke="white"/>
<path d="M92.0213 3.32012C92.1642 2.84589 92.8357 2.84588 92.9787 3.32013L95.1399 10.4887C95.3309 11.1222 95.9144 11.5557 96.576 11.5557H103.72C104.195 11.5557 104.402 12.1564 104.028 12.4494L98.123 17.0734C97.6362 17.4546 97.4331 18.0954 97.6116 18.6874L99.8363 26.0668C99.9772 26.5341 99.4336 26.9057 99.0493 26.6048L93.4248 22.2005C92.8816 21.7752 92.1184 21.7752 91.5752 22.2005L85.9506 26.6048C85.5663 26.9057 85.0227 26.5341 85.1636 26.0668L87.3884 18.6874C87.5668 18.0954 87.3638 17.4546 86.877 17.0734L80.9717 12.4494C80.5975 12.1564 80.8047 11.5557 81.28 11.5557H88.4239C89.0856 11.5557 89.6691 11.1222 89.8601 10.4887L92.0213 3.32012Z" stroke="white"/>
<path d="M129.709 3.08393C129.859 2.62313 130.511 2.62313 130.66 3.08393L133.074 10.5189C133.275 11.1371 133.851 11.5557 134.501 11.5557H142.314C142.799 11.5557 143 12.1753 142.608 12.4601L136.286 17.0571C135.761 17.4391 135.541 18.1158 135.741 18.7335L138.156 26.1707C138.306 26.6314 137.778 27.0144 137.386 26.7295L131.067 22.1347C130.541 21.7523 129.829 21.7523 129.303 22.1347L122.983 26.7295C122.592 27.0144 122.064 26.6314 122.214 26.1707L124.628 18.7335C124.829 18.1158 124.609 17.4391 124.084 17.0571L117.761 12.4601C117.37 12.1753 117.571 11.5557 118.056 11.5557H125.869C126.519 11.5557 127.095 11.1371 127.295 10.5189L129.709 3.08393Z" stroke="white"/>
<path d="M168.537 3.08393C168.687 2.62313 169.339 2.62313 169.489 3.08393L171.903 10.5189C172.103 11.1371 172.679 11.5557 173.329 11.5557H181.142C181.627 11.5557 181.828 12.1753 181.436 12.4601L175.114 17.0571C174.589 17.4391 174.369 18.1158 174.57 18.7335L176.984 26.1707C177.134 26.6314 176.606 27.0144 176.215 26.7295L169.895 22.1347C169.369 21.7523 168.657 21.7523 168.131 22.1347L161.812 26.7295C161.42 27.0144 160.892 26.6314 161.042 26.1707L163.457 18.7335C163.657 18.1158 163.437 17.4391 162.912 17.0571L156.59 12.4601C156.198 12.1753 156.399 11.5557 156.884 11.5557H164.697C165.347 11.5557 165.923 11.1371 166.124 10.5189L168.537 3.08393Z" stroke="white"/>
</svg>
