<svg width="333" height="42" viewBox="0 0 335 42" fill="none" xmlns="http://www.w3.org/2000/svg">
<rect width="335" height="42" rx="10" fill="#9C0A35"/>
<circle cx="132.5" cy="21" r="9" stroke="white" stroke-width="2"/>
<path d="M132.5 24L132.5 18" stroke="white" stroke-width="2" stroke-linecap="square"/>
<path d="M135.5 21L129.5 21" stroke="white" stroke-width="2" stroke-linecap="square"/>
<path d="M158.352 26.668C157.353 26.668 156.448 26.4533 155.636 26.024C154.833 25.5853 154.199 24.9833 153.732 24.218C153.275 23.4433 153.046 22.5707 153.046 21.6C153.046 20.6293 153.275 19.7613 153.732 18.996C154.199 18.2213 154.833 17.6193 155.636 17.19C156.448 16.7513 157.358 16.532 158.366 16.532C159.215 16.532 159.981 16.6813 160.662 16.98C161.353 17.2787 161.931 17.708 162.398 18.268L160.942 19.612C160.279 18.8467 159.458 18.464 158.478 18.464C157.871 18.464 157.33 18.5993 156.854 18.87C156.378 19.1313 156.005 19.5 155.734 19.976C155.473 20.452 155.342 20.9933 155.342 21.6C155.342 22.2067 155.473 22.748 155.734 23.224C156.005 23.7 156.378 24.0733 156.854 24.344C157.33 24.6053 157.871 24.736 158.478 24.736C159.458 24.736 160.279 24.3487 160.942 23.574L162.398 24.918C161.931 25.4873 161.353 25.9213 160.662 26.22C159.971 26.5187 159.201 26.668 158.352 26.668ZM166.976 26.612C166.183 26.612 165.469 26.4487 164.834 26.122C164.209 25.786 163.719 25.324 163.364 24.736C163.01 24.148 162.832 23.4807 162.832 22.734C162.832 21.9873 163.01 21.32 163.364 20.732C163.719 20.144 164.209 19.6867 164.834 19.36C165.469 19.024 166.183 18.856 166.976 18.856C167.77 18.856 168.479 19.024 169.104 19.36C169.73 19.6867 170.22 20.144 170.574 20.732C170.929 21.32 171.106 21.9873 171.106 22.734C171.106 23.4807 170.929 24.148 170.574 24.736C170.22 25.324 169.73 25.786 169.104 26.122C168.479 26.4487 167.77 26.612 166.976 26.612ZM166.976 24.82C167.536 24.82 167.994 24.6333 168.348 24.26C168.712 23.8773 168.894 23.3687 168.894 22.734C168.894 22.0993 168.712 21.5953 168.348 21.222C167.994 20.8393 167.536 20.648 166.976 20.648C166.416 20.648 165.954 20.8393 165.59 21.222C165.226 21.5953 165.044 22.0993 165.044 22.734C165.044 23.3687 165.226 23.8773 165.59 24.26C165.954 24.6333 166.416 24.82 166.976 24.82ZM177.358 22.58C177.806 22.72 178.151 22.9347 178.394 23.224C178.646 23.5133 178.772 23.8587 178.772 24.26C178.772 24.736 178.609 25.156 178.282 25.52C177.955 25.8747 177.507 26.15 176.938 26.346C176.369 26.542 175.725 26.64 175.006 26.64C174.418 26.64 173.839 26.5793 173.27 26.458C172.701 26.3367 172.173 26.1547 171.688 25.912L172.276 24.386C173.069 24.7687 173.947 24.96 174.908 24.96C175.421 24.96 175.823 24.8853 176.112 24.736C176.411 24.5773 176.56 24.358 176.56 24.078C176.56 23.8353 176.457 23.6533 176.252 23.532C176.047 23.4013 175.748 23.336 175.356 23.336H173.816V21.978H175.16C175.543 21.978 175.837 21.9173 176.042 21.796C176.247 21.6747 176.35 21.4973 176.35 21.264C176.35 21.0213 176.219 20.8347 175.958 20.704C175.706 20.5733 175.342 20.508 174.866 20.508C174.138 20.508 173.345 20.6807 172.486 21.026L171.954 19.514C172.999 19.0567 174.017 18.828 175.006 18.828C175.687 18.828 176.294 18.912 176.826 19.08C177.367 19.248 177.792 19.4953 178.1 19.822C178.408 20.1393 178.562 20.5127 178.562 20.942C178.562 21.2967 178.455 21.6187 178.24 21.908C178.025 22.188 177.731 22.412 177.358 22.58ZM188.803 24.708V28.124H186.773V26.5H181.481V28.124H179.451V24.708H179.759C180.225 24.6987 180.547 24.4233 180.725 23.882C180.902 23.3407 181.014 22.5707 181.061 21.572L181.159 18.968H187.725V24.708H188.803ZM183.035 21.726C183.007 22.4913 182.946 23.1167 182.853 23.602C182.769 24.0873 182.605 24.456 182.363 24.708H185.541V20.76H183.077L183.035 21.726ZM193.103 18.856C194.27 18.856 195.166 19.136 195.791 19.696C196.416 20.2467 196.729 21.082 196.729 22.202V26.5H194.685V25.562C194.274 26.262 193.509 26.612 192.389 26.612C191.81 26.612 191.306 26.514 190.877 26.318C190.457 26.122 190.135 25.8513 189.911 25.506C189.687 25.1607 189.575 24.7687 189.575 24.33C189.575 23.63 189.836 23.0793 190.359 22.678C190.891 22.2767 191.708 22.076 192.809 22.076H194.545C194.545 21.6 194.4 21.236 194.111 20.984C193.822 20.7227 193.388 20.592 192.809 20.592C192.408 20.592 192.011 20.6573 191.619 20.788C191.236 20.9093 190.91 21.0773 190.639 21.292L189.855 19.766C190.266 19.4767 190.756 19.2527 191.325 19.094C191.904 18.9353 192.496 18.856 193.103 18.856ZM192.935 25.142C193.308 25.142 193.64 25.058 193.929 24.89C194.218 24.7127 194.424 24.456 194.545 24.12V23.35H193.047C192.151 23.35 191.703 23.644 191.703 24.232C191.703 24.512 191.81 24.736 192.025 24.904C192.249 25.0627 192.552 25.142 192.935 25.142ZM204.954 20.76H202.406V26.5H200.236V20.76H197.688V18.968H204.954V20.76ZM210.192 21.376C211.172 21.3853 211.924 21.6093 212.446 22.048C212.969 22.4773 213.23 23.0887 213.23 23.882C213.23 24.7127 212.936 25.3613 212.348 25.828C211.77 26.2853 210.953 26.514 209.898 26.514L206.118 26.5V18.968H208.288V21.376H210.192ZM209.702 24.96C210.122 24.9693 210.444 24.8807 210.668 24.694C210.892 24.5073 211.004 24.2273 211.004 23.854C211.004 23.49 210.892 23.224 210.668 23.056C210.454 22.888 210.132 22.7993 209.702 22.79L208.288 22.776V24.96H209.702Z" fill="white"/>
</svg>
