<svg width="336.43" height="283" viewBox="0 0 335 283" fill="none" xmlns="http://www.w3.org/2000/svg">
<path d="M0 16C0 7.16344 7.16344 0 16 0H319C327.837 0 335 7.16344 335 16V267C335 275.837 327.837 283 319 283H16C7.16345 283 0 275.837 0 267V16Z" fill="#F2F2F2"/>
<rect x="104" y="64" width="40" height="210" rx="6" fill="#E0E0E0"/>
<path d="M144.649 22.384C144.649 23.856 144.137 25.0187 143.113 25.872C142.089 26.7253 140.633 27.1893 138.745 27.264V28.448H136.825V27.264C134.937 27.168 133.476 26.6987 132.441 25.856C131.417 25.0133 130.905 23.856 130.905 22.384C130.905 20.912 131.417 19.7547 132.441 18.912C133.476 18.0587 134.937 17.584 136.825 17.488V16.352H138.745V17.488C140.633 17.584 142.089 18.0587 143.113 18.912C144.137 19.7547 144.649 20.912 144.649 22.384ZM138.745 25.632C140.025 25.536 140.996 25.216 141.657 24.672C142.319 24.1173 142.649 23.3493 142.649 22.368C142.649 21.3867 142.313 20.624 141.641 20.08C140.98 19.536 140.015 19.2213 138.745 19.136V25.632ZM132.937 22.384C132.937 23.3547 133.268 24.112 133.929 24.656C134.601 25.2 135.567 25.5253 136.825 25.632V19.136C134.233 19.328 132.937 20.4107 132.937 22.384ZM154.61 23.776C154.61 23.9147 154.599 24.112 154.578 24.368H147.874C147.991 24.9973 148.295 25.4987 148.786 25.872C149.287 26.2347 149.906 26.416 150.642 26.416C151.58 26.416 152.354 26.1067 152.962 25.488L154.034 26.72C153.65 27.1787 153.164 27.5253 152.578 27.76C151.991 27.9947 151.33 28.112 150.594 28.112C149.655 28.112 148.828 27.9253 148.114 27.552C147.399 27.1787 146.844 26.6613 146.45 26C146.066 25.328 145.874 24.5707 145.874 23.728C145.874 22.896 146.06 22.1493 146.434 21.488C146.818 20.816 147.346 20.2933 148.018 19.92C148.69 19.5467 149.447 19.36 150.29 19.36C151.122 19.36 151.863 19.5467 152.514 19.92C153.175 20.2827 153.687 20.8 154.05 21.472C154.423 22.1333 154.61 22.9013 154.61 23.776ZM150.29 20.96C149.65 20.96 149.106 21.152 148.658 21.536C148.22 21.9093 147.954 22.4107 147.858 23.04H152.706C152.62 22.4213 152.359 21.92 151.922 21.536C151.484 21.152 150.94 20.96 150.29 20.96ZM162.989 23.552C164.045 23.872 164.573 24.5547 164.573 25.6C164.573 26.368 164.285 26.96 163.709 27.376C163.133 27.792 162.28 28 161.149 28H156.797V19.456H160.973C162.018 19.456 162.834 19.648 163.421 20.032C164.008 20.416 164.301 20.96 164.301 21.664C164.301 22.1013 164.184 22.48 163.949 22.8C163.725 23.12 163.405 23.3707 162.989 23.552ZM158.701 23.024H160.797C161.832 23.024 162.349 22.6667 162.349 21.952C162.349 21.2587 161.832 20.912 160.797 20.912H158.701V23.024ZM160.989 26.544C162.088 26.544 162.637 26.1867 162.637 25.472C162.637 25.0987 162.509 24.8213 162.253 24.64C161.997 24.448 161.597 24.352 161.053 24.352H158.701V26.544H160.989ZM171.439 19.36C172.271 19.36 173.013 19.5413 173.663 19.904C174.325 20.2667 174.842 20.7787 175.215 21.44C175.589 22.1013 175.775 22.864 175.775 23.728C175.775 24.592 175.589 25.36 175.215 26.032C174.842 26.6933 174.325 27.2053 173.663 27.568C173.013 27.9307 172.271 28.112 171.439 28.112C170.287 28.112 169.375 27.728 168.703 26.96V31.104H166.703V19.456H168.607V20.576C168.938 20.1707 169.343 19.8667 169.823 19.664C170.314 19.4613 170.853 19.36 171.439 19.36ZM171.215 26.4C171.951 26.4 172.554 26.1547 173.023 25.664C173.503 25.1733 173.743 24.528 173.743 23.728C173.743 22.928 173.503 22.2827 173.023 21.792C172.554 21.3013 171.951 21.056 171.215 21.056C170.735 21.056 170.303 21.168 169.919 21.392C169.535 21.6053 169.231 21.9147 169.007 22.32C168.783 22.7253 168.671 23.1947 168.671 23.728C168.671 24.2613 168.783 24.7307 169.007 25.136C169.231 25.5413 169.535 25.856 169.919 26.08C170.303 26.2933 170.735 26.4 171.215 26.4ZM180.841 19.36C182.099 19.36 183.059 19.664 183.721 20.272C184.393 20.8693 184.729 21.776 184.729 22.992V28H182.841V26.96C182.595 27.3333 182.243 27.6213 181.785 27.824C181.337 28.016 180.793 28.112 180.153 28.112C179.513 28.112 178.953 28.0053 178.473 27.792C177.993 27.568 177.619 27.264 177.353 26.88C177.097 26.4853 176.969 26.0427 176.969 25.552C176.969 24.784 177.251 24.1707 177.817 23.712C178.393 23.2427 179.294 23.008 180.521 23.008H182.729V22.88C182.729 22.2827 182.547 21.824 182.185 21.504C181.833 21.184 181.305 21.024 180.601 21.024C180.121 21.024 179.646 21.0987 179.177 21.248C178.718 21.3973 178.329 21.6053 178.009 21.872L177.225 20.416C177.673 20.0747 178.211 19.8133 178.841 19.632C179.47 19.4507 180.137 19.36 180.841 19.36ZM180.569 26.656C181.07 26.656 181.513 26.544 181.897 26.32C182.291 26.0853 182.569 25.7547 182.729 25.328V24.336H180.665C179.513 24.336 178.937 24.7147 178.937 25.472C178.937 25.8347 179.081 26.1227 179.369 26.336C179.657 26.5493 180.057 26.656 180.569 26.656ZM194.947 19.456V28H192.947V21.152H189.747L189.667 22.848C189.614 23.9787 189.507 24.928 189.347 25.696C189.198 26.4533 188.937 27.056 188.563 27.504C188.201 27.9413 187.699 28.16 187.059 28.16C186.761 28.16 186.393 28.1013 185.955 27.984L186.051 26.304C186.201 26.336 186.329 26.352 186.435 26.352C186.841 26.352 187.145 26.192 187.347 25.872C187.55 25.5413 187.678 25.152 187.731 24.704C187.795 24.2453 187.849 23.5947 187.891 22.752L188.035 19.456H194.947ZM201.929 22.272C203.017 22.272 203.849 22.5173 204.425 23.008C205.012 23.4987 205.305 24.192 205.305 25.088C205.305 26.0267 204.985 26.752 204.345 27.264C203.705 27.776 202.804 28.0267 201.641 28.016L197.641 28V19.456H199.641V22.256L201.929 22.272ZM201.465 26.544C202.052 26.5547 202.5 26.432 202.809 26.176C203.118 25.92 203.273 25.5467 203.273 25.056C203.273 24.576 203.124 24.224 202.825 24C202.526 23.776 202.073 23.6587 201.465 23.648L199.641 23.632V26.528L201.465 26.544Z" fill="#4F4F4F"/>
<path d="M159.03 52.869V54H152.491V53.116L156.196 49.541C156.647 49.1077 156.95 48.735 157.106 48.423C157.262 48.1023 157.34 47.7817 157.34 47.461C157.34 46.9843 157.171 46.616 156.833 46.356C156.504 46.0873 156.027 45.953 155.403 45.953C154.398 45.953 153.622 46.2823 153.076 46.941L152.192 46.174C152.548 45.7407 153.011 45.4027 153.583 45.16C154.164 44.9173 154.81 44.796 155.52 44.796C156.474 44.796 157.232 45.0257 157.795 45.485C158.359 45.9357 158.64 46.551 158.64 47.331C158.64 47.8163 158.536 48.2757 158.328 48.709C158.12 49.1423 157.726 49.6363 157.145 50.191L154.363 52.869H159.03ZM163.779 54.104C163.06 54.104 162.418 53.922 161.855 53.558C161.3 53.1853 160.863 52.648 160.542 51.946C160.221 51.244 160.061 50.412 160.061 49.45C160.061 48.488 160.221 47.656 160.542 46.954C160.863 46.252 161.3 45.719 161.855 45.355C162.418 44.9823 163.06 44.796 163.779 44.796C164.49 44.796 165.122 44.9823 165.677 45.355C166.24 45.719 166.682 46.252 167.003 46.954C167.324 47.656 167.484 48.488 167.484 49.45C167.484 50.412 167.324 51.244 167.003 51.946C166.682 52.648 166.24 53.1853 165.677 53.558C165.122 53.922 164.49 54.104 163.779 54.104ZM163.779 52.947C164.507 52.947 165.088 52.648 165.521 52.05C165.963 51.452 166.184 50.5853 166.184 49.45C166.184 48.3147 165.963 47.448 165.521 46.85C165.088 46.252 164.507 45.953 163.779 45.953C163.042 45.953 162.453 46.252 162.011 46.85C161.578 47.448 161.361 48.3147 161.361 49.45C161.361 50.5853 161.578 51.452 162.011 52.05C162.453 52.648 163.042 52.947 163.779 52.947ZM175.09 52.869V54H168.551V53.116L172.256 49.541C172.706 49.1077 173.01 48.735 173.166 48.423C173.322 48.1023 173.4 47.7817 173.4 47.461C173.4 46.9843 173.231 46.616 172.893 46.356C172.563 46.0873 172.087 45.953 171.463 45.953C170.457 45.953 169.682 46.2823 169.136 46.941L168.252 46.174C168.607 45.7407 169.071 45.4027 169.643 45.16C170.223 44.9173 170.869 44.796 171.58 44.796C172.533 44.796 173.291 45.0257 173.855 45.485C174.418 45.9357 174.7 46.551 174.7 47.331C174.7 47.8163 174.596 48.2757 174.388 48.709C174.18 49.1423 173.785 49.6363 173.205 50.191L170.423 52.869H175.09ZM183.834 51.764H182.105V54H180.844V51.764H175.787V50.854L180.441 44.9H181.845L177.386 50.646H180.883V48.67H182.105V50.646H183.834V51.764Z" fill="#4F4F4F"/>
<path d="M36.9621 73.5016V82.6016H35.6881V74.6326H30.4101V82.6016H29.1231V73.5016H36.9621ZM39.5918 75.7116H40.8398V78.6366H44.7658V75.7116H46.0138V82.6016H44.7658V79.7156H40.8398V82.6016H39.5918V75.7116Z" fill="#4F4F4F"/>
<path d="M79.836 77.8826C80.4513 78.0299 80.915 78.2942 81.227 78.6756C81.5476 79.0482 81.708 79.5292 81.708 80.1186C81.708 80.9072 81.4176 81.5182 80.837 81.9516C80.265 82.3849 79.4286 82.6016 78.328 82.6016H74.168V73.5016H78.081C79.0776 73.5016 79.8533 73.7052 80.408 74.1126C80.9713 74.5112 81.253 75.0876 81.253 75.8416C81.253 76.3356 81.1273 76.7559 80.876 77.1026C80.6333 77.4492 80.2866 77.7092 79.836 77.8826ZM75.455 77.5056H77.99C78.6226 77.5056 79.1036 77.3799 79.433 77.1286C79.771 76.8772 79.94 76.5089 79.94 76.0236C79.94 75.5382 79.771 75.1699 79.433 74.9186C79.095 74.6586 78.614 74.5286 77.99 74.5286H75.455V77.5056ZM78.302 81.5746C79.6973 81.5746 80.395 81.0546 80.395 80.0146C80.395 79.4946 80.2173 79.1132 79.862 78.8706C79.5153 78.6192 78.9953 78.4936 78.302 78.4936H75.455V81.5746H78.302ZM88.8069 76.8036H86.2849V82.6016H85.0369V76.8036H82.5149V75.7116H88.8069V76.8036Z" fill="#4F4F4F"/>
<path d="M120.502 82.7056C119.592 82.7056 118.768 82.5062 118.032 82.1076C117.304 81.7002 116.732 81.1456 116.316 80.4436C115.9 79.7329 115.692 78.9356 115.692 78.0516C115.692 77.1676 115.9 76.3746 116.316 75.6726C116.732 74.9619 117.308 74.4072 118.045 74.0086C118.781 73.6012 119.605 73.3976 120.515 73.3976C121.225 73.3976 121.875 73.5189 122.465 73.7616C123.054 73.9956 123.557 74.3466 123.973 74.8146L123.128 75.6336C122.443 74.9142 121.589 74.5546 120.567 74.5546C119.891 74.5546 119.28 74.7062 118.734 75.0096C118.188 75.3129 117.759 75.7332 117.447 76.2706C117.143 76.7992 116.992 77.3929 116.992 78.0516C116.992 78.7102 117.143 79.3082 117.447 79.8456C117.759 80.3742 118.188 80.7902 118.734 81.0936C119.28 81.3969 119.891 81.5486 120.567 81.5486C121.581 81.5486 122.434 81.1846 123.128 80.4566L123.973 81.2756C123.557 81.7436 123.05 82.0989 122.452 82.3416C121.862 82.5842 121.212 82.7056 120.502 82.7056ZM129.209 75.6466C129.876 75.6466 130.474 75.7939 131.003 76.0886C131.531 76.3832 131.943 76.7949 132.238 77.3236C132.541 77.8522 132.693 78.4632 132.693 79.1566C132.693 79.8499 132.541 80.4652 132.238 81.0026C131.943 81.5312 131.531 81.9429 131.003 82.2376C130.474 82.5322 129.876 82.6796 129.209 82.6796C128.715 82.6796 128.26 82.5842 127.844 82.3936C127.436 82.2029 127.09 81.9256 126.804 81.5616V85.1236H125.556V75.7116H126.752V76.8036C127.029 76.4222 127.38 76.1362 127.805 75.9456C128.229 75.7462 128.697 75.6466 129.209 75.6466ZM129.105 81.5876C129.547 81.5876 129.941 81.4879 130.288 81.2886C130.643 81.0806 130.92 80.7946 131.12 80.4306C131.328 80.0579 131.432 79.6332 131.432 79.1566C131.432 78.6799 131.328 78.2596 131.12 77.8956C130.92 77.5229 130.643 77.2369 130.288 77.0376C129.941 76.8382 129.547 76.7386 129.105 76.7386C128.671 76.7386 128.277 76.8426 127.922 77.0506C127.575 77.2499 127.298 77.5316 127.09 77.8956C126.89 78.2596 126.791 78.6799 126.791 79.1566C126.791 79.6332 126.89 80.0579 127.09 80.4306C127.289 80.7946 127.566 81.0806 127.922 81.2886C128.277 81.4879 128.671 81.5876 129.105 81.5876Z" fill="#4F4F4F"/>
<path d="M167.659 73.5016V82.6016H166.372V79.0006C165.41 79.3732 164.522 79.5596 163.707 79.5596C162.598 79.5596 161.736 79.2909 161.12 78.7536C160.514 78.2162 160.21 77.4492 160.21 76.4526V73.5016H161.484V76.3096C161.484 76.9856 161.688 77.5056 162.095 77.8696C162.511 78.2336 163.096 78.4156 163.85 78.4156C164.691 78.4156 165.532 78.2249 166.372 77.8436V73.5016H167.659ZM175.425 76.8036H172.903V82.6016H171.655V76.8036H169.133V75.7116H175.425V76.8036Z" fill="#4F4F4F"/>
<path d="M211.056 73.5016V82.6016H209.782V74.6326H204.504V82.6016H203.217V73.5016H211.056ZM218.821 76.8036H216.299V82.6016H215.051V76.8036H212.529V75.7116H218.821V76.8036Z" fill="#4F4F4F"/>
<path d="M250.799 82.7056C249.889 82.7056 249.066 82.5062 248.329 82.1076C247.601 81.7002 247.029 81.1456 246.613 80.4436C246.197 79.7329 245.989 78.9356 245.989 78.0516C245.989 77.1676 246.197 76.3746 246.613 75.6726C247.029 74.9619 247.606 74.4072 248.342 74.0086C249.079 73.6012 249.902 73.3976 250.812 73.3976C251.523 73.3976 252.173 73.5189 252.762 73.7616C253.352 73.9956 253.854 74.3466 254.27 74.8146L253.425 75.6336C252.741 74.9142 251.887 74.5546 250.864 74.5546C250.188 74.5546 249.577 74.7062 249.031 75.0096C248.485 75.3129 248.056 75.7332 247.744 76.2706C247.441 76.7992 247.289 77.3929 247.289 78.0516C247.289 78.7102 247.441 79.3082 247.744 79.8456C248.056 80.3742 248.485 80.7902 249.031 81.0936C249.577 81.3969 250.188 81.5486 250.864 81.5486C251.878 81.5486 252.732 81.1846 253.425 80.4566L254.27 81.2756C253.854 81.7436 253.347 82.0989 252.749 82.3416C252.16 82.5842 251.51 82.7056 250.799 82.7056ZM259.173 75.9456C259.814 75.9456 260.386 76.0886 260.889 76.3746C261.392 76.6606 261.782 77.0592 262.059 77.5706C262.345 78.0732 262.488 78.6496 262.488 79.2996C262.488 79.9669 262.336 80.5606 262.033 81.0806C261.738 81.5919 261.318 81.9906 260.772 82.2766C260.235 82.5626 259.619 82.7056 258.926 82.7056C257.756 82.7056 256.85 82.3069 256.209 81.5096C255.576 80.7036 255.26 79.5726 255.26 78.1166C255.26 76.7039 255.55 75.5989 256.131 74.8016C256.712 73.9956 257.6 73.4626 258.796 73.2026L261.942 72.5006L262.124 73.6446L259.225 74.2686C258.324 74.4679 257.652 74.8059 257.21 75.2826C256.768 75.7592 256.517 76.4439 256.456 77.3366C256.751 76.8946 257.132 76.5522 257.6 76.3096C258.068 76.0669 258.592 75.9456 259.173 75.9456ZM258.952 81.6656C259.394 81.6656 259.784 81.5659 260.122 81.3666C260.469 81.1672 260.737 80.8942 260.928 80.5476C261.119 80.1922 261.214 79.7892 261.214 79.3386C261.214 78.6539 261.006 78.1036 260.59 77.6876C260.174 77.2716 259.628 77.0636 258.952 77.0636C258.276 77.0636 257.726 77.2716 257.301 77.6876C256.885 78.1036 256.677 78.6539 256.677 79.3386C256.677 79.7892 256.772 80.1922 256.963 80.5476C257.162 80.8942 257.435 81.1672 257.782 81.3666C258.129 81.5659 258.519 81.6656 258.952 81.6656Z" fill="#9C0A35"/>
<path d="M296.047 77.8826C296.662 78.0299 297.126 78.2942 297.438 78.6756C297.759 79.0482 297.919 79.5292 297.919 80.1186C297.919 80.9072 297.629 81.5182 297.048 81.9516C296.476 82.3849 295.64 82.6016 294.539 82.6016H290.379V73.5016H294.292C295.289 73.5016 296.064 73.7052 296.619 74.1126C297.182 74.5112 297.464 75.0876 297.464 75.8416C297.464 76.3356 297.338 76.7559 297.087 77.1026C296.844 77.4492 296.498 77.7092 296.047 77.8826ZM291.666 77.5056H294.201C294.834 77.5056 295.315 77.3799 295.644 77.1286C295.982 76.8772 296.151 76.5089 296.151 76.0236C296.151 75.5382 295.982 75.1699 295.644 74.9186C295.306 74.6586 294.825 74.5286 294.201 74.5286H291.666V77.5056ZM294.513 81.5746C295.908 81.5746 296.606 81.0546 296.606 80.0146C296.606 79.4946 296.428 79.1132 296.073 78.8706C295.726 78.6192 295.206 78.4936 294.513 78.4936H291.666V81.5746H294.513ZM302.886 82.6796C302.184 82.6796 301.555 82.5279 301.001 82.2246C300.455 81.9212 300.026 81.5052 299.714 80.9766C299.402 80.4392 299.246 79.8326 299.246 79.1566C299.246 78.4806 299.402 77.8782 299.714 77.3496C300.026 76.8122 300.455 76.3962 301.001 76.1016C301.555 75.7982 302.184 75.6466 302.886 75.6466C303.51 75.6466 304.064 75.7722 304.55 76.0236C305.044 76.2749 305.425 76.6389 305.694 77.1156L304.745 77.7266C304.528 77.3972 304.259 77.1502 303.939 76.9856C303.618 76.8209 303.263 76.7386 302.873 76.7386C302.422 76.7386 302.015 76.8382 301.651 77.0376C301.295 77.2369 301.014 77.5229 300.806 77.8956C300.606 78.2596 300.507 78.6799 300.507 79.1566C300.507 79.6419 300.606 80.0709 300.806 80.4436C301.014 80.8076 301.295 81.0892 301.651 81.2886C302.015 81.4879 302.422 81.5876 302.873 81.5876C303.263 81.5876 303.618 81.5052 303.939 81.3406C304.259 81.1759 304.528 80.9289 304.745 80.5996L305.694 81.1976C305.425 81.6742 305.044 82.0426 304.55 82.3026C304.064 82.5539 303.51 82.6796 302.886 82.6796Z" fill="#9C0A35"/>
<path d="M39.2035 120.434V121.266H32.8205V120.603L36.6035 116.898C37.0801 116.43 37.4008 116.027 37.5655 115.689C37.7388 115.342 37.8255 114.995 37.8255 114.649C37.8255 114.111 37.6391 113.695 37.2665 113.401C36.9025 113.097 36.3781 112.946 35.6935 112.946C34.6275 112.946 33.7998 113.284 33.2105 113.96L32.5475 113.388C32.9028 112.972 33.3535 112.651 33.8995 112.426C34.4541 112.2 35.0781 112.088 35.7715 112.088C36.6988 112.088 37.4311 112.309 37.9685 112.751C38.5145 113.184 38.7875 113.782 38.7875 114.545C38.7875 115.013 38.6835 115.463 38.4755 115.897C38.2675 116.33 37.8731 116.828 37.2925 117.392L34.1985 120.434H39.2035ZM43.2121 112.088C44.4168 112.088 45.3398 112.486 45.9811 113.284C46.6225 114.072 46.9431 115.19 46.9431 116.638C46.9431 117.652 46.7698 118.51 46.4231 119.212C46.0765 119.914 45.5911 120.447 44.9671 120.811C44.3431 121.166 43.6151 121.344 42.7831 121.344C41.8818 121.344 41.1625 121.179 40.6251 120.85L41.0021 120.096C41.4355 120.382 42.0248 120.525 42.7701 120.525C43.7755 120.525 44.5641 120.208 45.1361 119.576C45.7081 118.934 45.9941 118.007 45.9941 116.794C45.9941 116.568 45.9811 116.321 45.9551 116.053C45.7298 116.547 45.3701 116.932 44.8761 117.21C44.3821 117.478 43.8145 117.613 43.1731 117.613C42.5751 117.613 42.0421 117.5 41.5741 117.275C41.1148 117.049 40.7551 116.733 40.4951 116.326C40.2351 115.91 40.1051 115.429 40.1051 114.883C40.1051 114.328 40.2395 113.838 40.5081 113.414C40.7768 112.989 41.1451 112.664 41.6131 112.439C42.0898 112.205 42.6228 112.088 43.2121 112.088ZM43.3161 116.82C43.7755 116.82 44.1785 116.733 44.5251 116.56C44.8805 116.386 45.1578 116.148 45.3571 115.845C45.5565 115.541 45.6561 115.203 45.6561 114.831C45.6561 114.484 45.5608 114.163 45.3701 113.869C45.1881 113.574 44.9151 113.336 44.5511 113.154C44.1871 112.972 43.7538 112.881 43.2511 112.881C42.5925 112.881 42.0551 113.063 41.6391 113.427C41.2318 113.782 41.0281 114.259 41.0281 114.857C41.0281 115.455 41.2318 115.931 41.6391 116.287C42.0551 116.642 42.6141 116.82 43.3161 116.82Z" fill="#828282"/>
<path d="M78.1098 116.066C79.0632 116.118 79.7868 116.378 80.2808 116.846C80.7835 117.305 81.0348 117.907 81.0348 118.653C81.0348 119.173 80.9092 119.636 80.6578 120.044C80.4065 120.442 80.0338 120.759 79.5398 120.993C79.0458 121.227 78.4435 121.344 77.7328 121.344C77.0742 121.344 76.4502 121.24 75.8608 121.032C75.2802 120.815 74.8122 120.529 74.4568 120.174L74.9118 119.433C75.2152 119.745 75.6182 120 76.1208 120.2C76.6235 120.39 77.1608 120.486 77.7328 120.486C78.4782 120.486 79.0545 120.325 79.4618 120.005C79.8692 119.675 80.0728 119.225 80.0728 118.653C80.0728 118.089 79.8692 117.647 79.4618 117.327C79.0545 117.006 78.4392 116.846 77.6158 116.846H76.9658V116.157L79.4878 112.998H74.8338V112.166H80.6838V112.829L78.1098 116.066ZM85.9807 121.344C85.2787 121.344 84.6504 121.157 84.0957 120.785C83.5497 120.412 83.1207 119.879 82.8087 119.186C82.5054 118.484 82.3537 117.66 82.3537 116.716C82.3537 115.771 82.5054 114.952 82.8087 114.259C83.1207 113.557 83.5497 113.019 84.0957 112.647C84.6504 112.274 85.2787 112.088 85.9807 112.088C86.6827 112.088 87.3067 112.274 87.8527 112.647C88.4074 113.019 88.8407 113.557 89.1527 114.259C89.4647 114.952 89.6207 115.771 89.6207 116.716C89.6207 117.66 89.4647 118.484 89.1527 119.186C88.8407 119.879 88.4074 120.412 87.8527 120.785C87.3067 121.157 86.6827 121.344 85.9807 121.344ZM85.9807 120.486C86.5094 120.486 86.9731 120.338 87.3717 120.044C87.7791 119.749 88.0954 119.32 88.3207 118.757C88.5461 118.193 88.6587 117.513 88.6587 116.716C88.6587 115.918 88.5461 115.238 88.3207 114.675C88.0954 114.111 87.7791 113.682 87.3717 113.388C86.9731 113.093 86.5094 112.946 85.9807 112.946C85.4521 112.946 84.9841 113.093 84.5767 113.388C84.1781 113.682 83.8661 114.111 83.6407 114.675C83.4154 115.238 83.3027 115.918 83.3027 116.716C83.3027 117.513 83.4154 118.193 83.6407 118.757C83.8661 119.32 84.1781 119.749 84.5767 120.044C84.9841 120.338 85.4521 120.486 85.9807 120.486Z" fill="#828282"/>
<path d="M122.909 116.066C123.862 116.118 124.586 116.378 125.08 116.846C125.582 117.305 125.834 117.907 125.834 118.653C125.834 119.173 125.708 119.636 125.457 120.044C125.205 120.442 124.833 120.759 124.339 120.993C123.845 121.227 123.242 121.344 122.532 121.344C121.873 121.344 121.249 121.24 120.66 121.032C120.079 120.815 119.611 120.529 119.256 120.174L119.711 119.433C120.014 119.745 120.417 120 120.92 120.2C121.422 120.39 121.96 120.486 122.532 120.486C123.277 120.486 123.853 120.325 124.261 120.005C124.668 119.675 124.872 119.225 124.872 118.653C124.872 118.089 124.668 117.647 124.261 117.327C123.853 117.006 123.238 116.846 122.415 116.846H121.765V116.157L124.287 112.998H119.633V112.166H125.483V112.829L122.909 116.066ZM129.675 112.166V121.266H128.739V112.998H126.594V112.166H129.675Z" fill="#828282"/>
<path d="M168.349 112.166V121.266H167.413V112.998H165.268V112.166H168.349Z" fill="#4F4F4F"/>
<path d="M212.539 120.434V121.266H206.156V120.603L209.939 116.898C210.416 116.43 210.737 116.027 210.901 115.689C211.075 115.342 211.161 114.995 211.161 114.649C211.161 114.111 210.975 113.695 210.602 113.401C210.238 113.097 209.714 112.946 209.029 112.946C207.963 112.946 207.136 113.284 206.546 113.96L205.883 113.388C206.239 112.972 206.689 112.651 207.235 112.426C207.79 112.2 208.414 112.088 209.107 112.088C210.035 112.088 210.767 112.309 211.304 112.751C211.85 113.184 212.123 113.782 212.123 114.545C212.123 115.013 212.019 115.463 211.811 115.897C211.603 116.33 211.209 116.828 210.628 117.392L207.534 120.434H212.539Z" fill="#4F4F4F"/>
<path d="M251.789 116.066C252.742 116.118 253.466 116.378 253.96 116.846C254.462 117.305 254.714 117.907 254.714 118.653C254.714 119.173 254.588 119.636 254.337 120.044C254.085 120.442 253.713 120.759 253.219 120.993C252.725 121.227 252.122 121.344 251.412 121.344C250.753 121.344 250.129 121.24 249.54 121.032C248.959 120.815 248.491 120.529 248.136 120.174L248.591 119.433C248.894 119.745 249.297 120 249.8 120.2C250.302 120.39 250.84 120.486 251.412 120.486C252.157 120.486 252.733 120.325 253.141 120.005C253.548 119.675 253.752 119.225 253.752 118.653C253.752 118.089 253.548 117.647 253.141 117.327C252.733 117.006 252.118 116.846 251.295 116.846H250.645V116.157L253.167 112.998H248.513V112.166H254.363V112.829L251.789 116.066Z" fill="#9C0A35"/>
<path d="M298.645 118.874H296.825V121.266H295.889V118.874H290.754V118.198L295.577 112.166H296.617L291.963 118.042H295.915V115.936H296.825V118.042H298.645V118.874Z" fill="#9C0A35"/>
<path d="M39.3551 151.631C40.6724 151.631 41.6301 151.869 42.2281 152.346C42.8348 152.814 43.1381 153.473 43.1381 154.322C43.1381 154.851 43.0124 155.323 42.7611 155.739C42.5184 156.155 42.1501 156.484 41.6561 156.727C41.1621 156.961 40.5554 157.078 39.8361 157.078C39.1861 157.078 38.5664 156.974 37.9771 156.766C37.3964 156.549 36.9284 156.263 36.5731 155.908L37.0281 155.167C37.3314 155.479 37.7301 155.735 38.2241 155.934C38.7181 156.125 39.2511 156.22 39.8231 156.22C40.5771 156.22 41.1578 156.051 41.5651 155.713C41.9811 155.375 42.1891 154.924 42.1891 154.361C42.1891 153.737 41.9551 153.265 41.4871 152.944C41.0278 152.623 40.2478 152.463 39.1471 152.463H37.2101L37.6781 147.9H42.6571V148.732H38.4971L38.1851 151.631H39.3551Z" fill="#4F4F4F"/>
<path d="M82.7976 151.553C83.3956 151.553 83.9242 151.666 84.3836 151.891C84.8516 152.116 85.2156 152.437 85.4756 152.853C85.7356 153.26 85.8656 153.737 85.8656 154.283C85.8656 154.838 85.7312 155.327 85.4626 155.752C85.1939 156.177 84.8212 156.506 84.3446 156.74C83.8766 156.965 83.3479 157.078 82.7586 157.078C81.5539 157.078 80.6309 156.684 79.9896 155.895C79.3482 155.098 79.0276 153.975 79.0276 152.528C79.0276 151.514 79.2009 150.656 79.5476 149.954C79.8942 149.252 80.3796 148.723 81.0036 148.368C81.6276 148.004 82.3556 147.822 83.1876 147.822C84.0889 147.822 84.8082 147.987 85.3456 148.316L84.9686 149.07C84.5352 148.784 83.9459 148.641 83.2006 148.641C82.1952 148.641 81.4066 148.962 80.8346 149.603C80.2626 150.236 79.9766 151.159 79.9766 152.372C79.9766 152.589 79.9896 152.836 80.0156 153.113C80.2409 152.619 80.6006 152.238 81.0946 151.969C81.5886 151.692 82.1562 151.553 82.7976 151.553ZM82.7196 156.285C83.3782 156.285 83.9112 156.107 84.3186 155.752C84.7346 155.388 84.9426 154.907 84.9426 154.309C84.9426 153.711 84.7346 153.234 84.3186 152.879C83.9112 152.524 83.3566 152.346 82.6546 152.346C82.1952 152.346 81.7879 152.433 81.4326 152.606C81.0859 152.779 80.8129 153.018 80.6136 153.321C80.4142 153.624 80.3146 153.962 80.3146 154.335C80.3146 154.682 80.4056 155.002 80.5876 155.297C80.7782 155.592 81.0556 155.83 81.4196 156.012C81.7836 156.194 82.2169 156.285 82.7196 156.285Z" fill="#4F4F4F"/>
<path d="M127.927 147.834V148.497L124.118 156.934H123.104L126.848 148.666H122.168V150.369H121.245V147.834H127.927Z" fill="#3A4244"/>
<path d="M169.244 152.163C169.816 152.353 170.254 152.639 170.557 153.021C170.869 153.402 171.025 153.861 171.025 154.399C171.025 154.927 170.882 155.391 170.596 155.79C170.31 156.18 169.898 156.483 169.361 156.7C168.832 156.908 168.208 157.012 167.489 157.012C166.397 157.012 165.539 156.778 164.915 156.31C164.291 155.842 163.979 155.205 163.979 154.399C163.979 153.853 164.126 153.393 164.421 153.021C164.724 152.639 165.162 152.353 165.734 152.163C165.266 151.981 164.911 151.721 164.668 151.383C164.425 151.036 164.304 150.629 164.304 150.161C164.304 149.424 164.59 148.839 165.162 148.406C165.743 147.972 166.518 147.756 167.489 147.756C168.13 147.756 168.689 147.855 169.166 148.055C169.651 148.245 170.028 148.523 170.297 148.887C170.566 149.251 170.7 149.675 170.7 150.161C170.7 150.629 170.574 151.036 170.323 151.383C170.072 151.721 169.712 151.981 169.244 152.163ZM165.24 150.187C165.24 150.689 165.439 151.088 165.838 151.383C166.237 151.677 166.787 151.825 167.489 151.825C168.191 151.825 168.741 151.677 169.14 151.383C169.547 151.088 169.751 150.694 169.751 150.2C169.751 149.688 169.543 149.285 169.127 148.991C168.72 148.696 168.174 148.549 167.489 148.549C166.796 148.549 166.245 148.696 165.838 148.991C165.439 149.285 165.24 149.684 165.24 150.187ZM167.489 156.219C168.295 156.219 168.923 156.054 169.374 155.725C169.833 155.395 170.063 154.949 170.063 154.386C170.063 153.822 169.833 153.38 169.374 153.06C168.923 152.73 168.295 152.566 167.489 152.566C166.692 152.566 166.063 152.73 165.604 153.06C165.153 153.38 164.928 153.822 164.928 154.386C164.928 154.958 165.153 155.408 165.604 155.738C166.055 156.058 166.683 156.219 167.489 156.219Z" fill="#3A4244"/>
<path d="M208.893 147.756C210.097 147.756 211.02 148.154 211.662 148.952C212.303 149.74 212.624 150.858 212.624 152.306C212.624 153.32 212.45 154.178 212.104 154.88C211.757 155.582 211.272 156.115 210.648 156.479C210.024 156.834 209.296 157.012 208.464 157.012C207.562 157.012 206.843 156.847 206.306 156.518L206.683 155.764C207.116 156.05 207.705 156.193 208.451 156.193C209.456 156.193 210.245 155.876 210.817 155.244C211.389 154.602 211.675 153.675 211.675 152.462C211.675 152.236 211.662 151.989 211.636 151.721C211.41 152.215 211.051 152.6 210.557 152.878C210.063 153.146 209.495 153.281 208.854 153.281C208.256 153.281 207.723 153.168 207.255 152.943C206.795 152.717 206.436 152.401 206.176 151.994C205.916 151.578 205.786 151.097 205.786 150.551C205.786 149.996 205.92 149.506 206.189 149.082C206.457 148.657 206.826 148.332 207.294 148.107C207.77 147.873 208.303 147.756 208.893 147.756ZM208.997 152.488C209.456 152.488 209.859 152.401 210.206 152.228C210.561 152.054 210.838 151.816 211.038 151.513C211.237 151.209 211.337 150.871 211.337 150.499C211.337 150.152 211.241 149.831 211.051 149.537C210.869 149.242 210.596 149.004 210.232 148.822C209.868 148.64 209.434 148.549 208.932 148.549C208.273 148.549 207.736 148.731 207.32 149.095C206.912 149.45 206.709 149.927 206.709 150.525C206.709 151.123 206.912 151.599 207.32 151.955C207.736 152.31 208.295 152.488 208.997 152.488Z" fill="#3A4244"/>
<path d="M248.233 147.834V156.934H247.297V148.666H245.152V147.834H248.233ZM254.035 157.012C253.333 157.012 252.705 156.825 252.15 156.453C251.604 156.08 251.175 155.547 250.863 154.854C250.56 154.152 250.408 153.328 250.408 152.384C250.408 151.439 250.56 150.62 250.863 149.927C251.175 149.225 251.604 148.687 252.15 148.315C252.705 147.942 253.333 147.756 254.035 147.756C254.737 147.756 255.361 147.942 255.907 148.315C256.462 148.687 256.895 149.225 257.207 149.927C257.519 150.62 257.675 151.439 257.675 152.384C257.675 153.328 257.519 154.152 257.207 154.854C256.895 155.547 256.462 156.08 255.907 156.453C255.361 156.825 254.737 157.012 254.035 157.012ZM254.035 156.154C254.564 156.154 255.028 156.006 255.426 155.712C255.834 155.417 256.15 154.988 256.375 154.425C256.601 153.861 256.713 153.181 256.713 152.384C256.713 151.586 256.601 150.906 256.375 150.343C256.15 149.779 255.834 149.35 255.426 149.056C255.028 148.761 254.564 148.614 254.035 148.614C253.507 148.614 253.039 148.761 252.631 149.056C252.233 149.35 251.921 149.779 251.695 150.343C251.47 150.906 251.357 151.586 251.357 152.384C251.357 153.181 251.47 153.861 251.695 154.425C251.921 154.988 252.233 155.417 252.631 155.712C253.039 156.006 253.507 156.154 254.035 156.154Z" fill="#9C0A35"/>
<path d="M292.532 147.834V156.934H291.596V148.666H289.451V147.834H292.532ZM297.229 147.834V156.934H296.293V148.666H294.148V147.834H297.229Z" fill="#9C0A35"/>
<path d="M37.6238 183.564V192.664H36.6878V184.396H34.5428V183.564H37.6238ZM46.013 191.832V192.664H39.63V192.001L43.413 188.296C43.8897 187.828 44.2104 187.425 44.375 187.087C44.5484 186.74 44.635 186.394 44.635 186.047C44.635 185.51 44.4487 185.094 44.076 184.799C43.712 184.496 43.1877 184.344 42.503 184.344C41.437 184.344 40.6094 184.682 40.02 185.358L39.357 184.786C39.7124 184.37 40.163 184.049 40.709 183.824C41.2637 183.599 41.8877 183.486 42.581 183.486C43.5084 183.486 44.2407 183.707 44.778 184.149C45.324 184.582 45.597 185.18 45.597 185.943C45.597 186.411 45.493 186.862 45.285 187.295C45.077 187.728 44.6827 188.227 44.102 188.79L41.008 191.832H46.013Z" fill="#4F4F4F"/>
<path d="M79.9929 183.564V192.664H79.0569V184.396H76.9119V183.564H79.9929ZM85.2622 187.464C86.2155 187.516 86.9392 187.776 87.4332 188.244C87.9359 188.703 88.1872 189.306 88.1872 190.051C88.1872 190.571 88.0615 191.035 87.8102 191.442C87.5589 191.841 87.1862 192.157 86.6922 192.391C86.1982 192.625 85.5959 192.742 84.8852 192.742C84.2265 192.742 83.6025 192.638 83.0132 192.43C82.4325 192.213 81.9645 191.927 81.6092 191.572L82.0642 190.831C82.3675 191.143 82.7705 191.399 83.2732 191.598C83.7759 191.789 84.3132 191.884 84.8852 191.884C85.6305 191.884 86.2069 191.724 86.6142 191.403C87.0215 191.074 87.2252 190.623 87.2252 190.051C87.2252 189.488 87.0215 189.046 86.6142 188.725C86.2069 188.404 85.5915 188.244 84.7682 188.244H84.1182V187.555L86.6402 184.396H81.9862V183.564H87.8362V184.227L85.2622 187.464Z" fill="#4F4F4F"/>
<path d="M121.208 183.498V192.598H120.272V184.33H118.127V183.498H121.208ZM131.119 190.206H129.299V192.598H128.363V190.206H123.228V189.53L128.051 183.498H129.091L124.437 189.374H128.389V187.268H129.299V189.374H131.119V190.206Z" fill="#3A4244"/>
<path d="M164.668 183.498V192.598H163.732V184.33H161.587V183.498H164.668ZM169.235 187.229C170.552 187.229 171.51 187.467 172.108 187.944C172.715 188.412 173.018 189.07 173.018 189.92C173.018 190.448 172.892 190.921 172.641 191.337C172.398 191.753 172.03 192.082 171.536 192.325C171.042 192.559 170.435 192.676 169.716 192.676C169.066 192.676 168.446 192.572 167.857 192.364C167.276 192.147 166.808 191.861 166.453 191.506L166.908 190.765C167.211 191.077 167.61 191.332 168.104 191.532C168.598 191.722 169.131 191.818 169.703 191.818C170.457 191.818 171.038 191.649 171.445 191.311C171.861 190.973 172.069 190.522 172.069 189.959C172.069 189.335 171.835 188.862 171.367 188.542C170.908 188.221 170.128 188.061 169.027 188.061H167.09L167.558 183.498H172.537V184.33H168.377L168.065 187.229H169.235Z" fill="#3A4244"/>
<path d="M206.732 183.498V192.598H205.796V184.33H203.651V183.498H206.732ZM212.677 187.151C213.275 187.151 213.804 187.263 214.263 187.489C214.731 187.714 215.095 188.035 215.355 188.451C215.615 188.858 215.745 189.335 215.745 189.881C215.745 190.435 215.611 190.925 215.342 191.35C215.074 191.774 214.701 192.104 214.224 192.338C213.756 192.563 213.228 192.676 212.638 192.676C211.434 192.676 210.511 192.281 209.869 191.493C209.228 190.695 208.907 189.573 208.907 188.126C208.907 187.112 209.081 186.254 209.427 185.552C209.774 184.85 210.259 184.321 210.883 183.966C211.507 183.602 212.235 183.42 213.067 183.42C213.969 183.42 214.688 183.584 215.225 183.914L214.848 184.668C214.415 184.382 213.826 184.239 213.08 184.239C212.075 184.239 211.286 184.559 210.714 185.201C210.142 185.833 209.856 186.756 209.856 187.97C209.856 188.186 209.869 188.433 209.895 188.711C210.121 188.217 210.48 187.835 210.974 187.567C211.468 187.289 212.036 187.151 212.677 187.151ZM212.599 191.883C213.258 191.883 213.791 191.705 214.198 191.35C214.614 190.986 214.822 190.505 214.822 189.907C214.822 189.309 214.614 188.832 214.198 188.477C213.791 188.121 213.236 187.944 212.534 187.944C212.075 187.944 211.668 188.03 211.312 188.204C210.966 188.377 210.693 188.615 210.493 188.919C210.294 189.222 210.194 189.56 210.194 189.933C210.194 190.279 210.285 190.6 210.467 190.895C210.658 191.189 210.935 191.428 211.299 191.61C211.663 191.792 212.097 191.883 212.599 191.883Z" fill="#4F4F4F"/>
<path d="M249.209 183.498V192.598H248.273V184.33H246.128V183.498H249.209ZM257.806 183.498V184.161L253.997 192.598H252.983L256.727 184.33H252.047V186.033H251.124V183.498H257.806Z" fill="#9C0A35"/>
<path d="M291.236 183.498V192.598H290.3V184.33H288.155V183.498H291.236ZM298.624 187.827C299.196 188.017 299.634 188.303 299.937 188.685C300.249 189.066 300.405 189.525 300.405 190.063C300.405 190.591 300.262 191.055 299.976 191.454C299.69 191.844 299.278 192.147 298.741 192.364C298.212 192.572 297.588 192.676 296.869 192.676C295.777 192.676 294.919 192.442 294.295 191.974C293.671 191.506 293.359 190.869 293.359 190.063C293.359 189.517 293.506 189.057 293.801 188.685C294.104 188.303 294.542 188.017 295.114 187.827C294.646 187.645 294.291 187.385 294.048 187.047C293.805 186.7 293.684 186.293 293.684 185.825C293.684 185.088 293.97 184.503 294.542 184.07C295.123 183.636 295.898 183.42 296.869 183.42C297.51 183.42 298.069 183.519 298.546 183.719C299.031 183.909 299.408 184.187 299.677 184.551C299.946 184.915 300.08 185.339 300.08 185.825C300.08 186.293 299.954 186.7 299.703 187.047C299.452 187.385 299.092 187.645 298.624 187.827ZM294.62 185.851C294.62 186.353 294.819 186.752 295.218 187.047C295.617 187.341 296.167 187.489 296.869 187.489C297.571 187.489 298.121 187.341 298.52 187.047C298.927 186.752 299.131 186.358 299.131 185.864C299.131 185.352 298.923 184.949 298.507 184.655C298.1 184.36 297.554 184.213 296.869 184.213C296.176 184.213 295.625 184.36 295.218 184.655C294.819 184.949 294.62 185.348 294.62 185.851ZM296.869 191.883C297.675 191.883 298.303 191.718 298.754 191.389C299.213 191.059 299.443 190.613 299.443 190.05C299.443 189.486 299.213 189.044 298.754 188.724C298.303 188.394 297.675 188.23 296.869 188.23C296.072 188.23 295.443 188.394 294.984 188.724C294.533 189.044 294.308 189.486 294.308 190.05C294.308 190.622 294.533 191.072 294.984 191.402C295.435 191.722 296.063 191.883 296.869 191.883Z" fill="#9C0A35"/>
<path d="M37.3572 219.23V228.33H36.4212V220.062H34.2762V219.23H37.3572ZM42.3664 219.152C43.5711 219.152 44.4941 219.551 45.1354 220.348C45.7768 221.137 46.0974 222.255 46.0974 223.702C46.0974 224.716 45.9241 225.574 45.5774 226.276C45.2308 226.978 44.7454 227.511 44.1214 227.875C43.4974 228.23 42.7694 228.408 41.9374 228.408C41.0361 228.408 40.3168 228.243 39.7794 227.914L40.1564 227.16C40.5898 227.446 41.1791 227.589 41.9244 227.589C42.9298 227.589 43.7184 227.273 44.2904 226.64C44.8624 225.999 45.1484 225.071 45.1484 223.858C45.1484 223.633 45.1354 223.386 45.1094 223.117C44.8841 223.611 44.5244 223.997 44.0304 224.274C43.5364 224.543 42.9688 224.677 42.3274 224.677C41.7294 224.677 41.1964 224.564 40.7284 224.339C40.2691 224.114 39.9094 223.797 39.6494 223.39C39.3894 222.974 39.2594 222.493 39.2594 221.947C39.2594 221.392 39.3938 220.903 39.6624 220.478C39.9311 220.053 40.2994 219.728 40.7674 219.503C41.2441 219.269 41.7771 219.152 42.3664 219.152ZM42.4704 223.884C42.9298 223.884 43.3328 223.797 43.6794 223.624C44.0348 223.451 44.3121 223.212 44.5114 222.909C44.7108 222.606 44.8104 222.268 44.8104 221.895C44.8104 221.548 44.7151 221.228 44.5244 220.933C44.3424 220.638 44.0694 220.4 43.7054 220.218C43.3414 220.036 42.9081 219.945 42.4054 219.945C41.7468 219.945 41.2094 220.127 40.7934 220.491C40.3861 220.846 40.1824 221.323 40.1824 221.921C40.1824 222.519 40.3861 222.996 40.7934 223.351C41.2094 223.706 41.7684 223.884 42.4704 223.884Z" fill="#4F4F4F"/>
<path d="M81.2298 227.498V228.33H74.8468V227.667L78.6298 223.962C79.1065 223.494 79.4272 223.091 79.5918 222.753C79.7652 222.406 79.8518 222.06 79.8518 221.713C79.8518 221.176 79.6655 220.76 79.2928 220.465C78.9288 220.162 78.4045 220.01 77.7198 220.01C76.6538 220.01 75.8262 220.348 75.2368 221.024L74.5738 220.452C74.9292 220.036 75.3798 219.715 75.9258 219.49C76.4805 219.265 77.1045 219.152 77.7978 219.152C78.7252 219.152 79.4575 219.373 79.9948 219.815C80.5408 220.248 80.8138 220.846 80.8138 221.609C80.8138 222.077 80.7098 222.528 80.5018 222.961C80.2938 223.394 79.8995 223.893 79.3188 224.456L76.2248 227.498H81.2298ZM85.9807 228.408C85.2787 228.408 84.6504 228.222 84.0957 227.849C83.5497 227.476 83.1207 226.943 82.8087 226.25C82.5054 225.548 82.3537 224.725 82.3537 223.78C82.3537 222.835 82.5054 222.016 82.8087 221.323C83.1207 220.621 83.5497 220.084 84.0957 219.711C84.6504 219.338 85.2787 219.152 85.9807 219.152C86.6827 219.152 87.3067 219.338 87.8527 219.711C88.4074 220.084 88.8407 220.621 89.1527 221.323C89.4647 222.016 89.6207 222.835 89.6207 223.78C89.6207 224.725 89.4647 225.548 89.1527 226.25C88.8407 226.943 88.4074 227.476 87.8527 227.849C87.3067 228.222 86.6827 228.408 85.9807 228.408ZM85.9807 227.55C86.5094 227.55 86.9731 227.403 87.3717 227.108C87.7791 226.813 88.0954 226.384 88.3207 225.821C88.5461 225.258 88.6587 224.577 88.6587 223.78C88.6587 222.983 88.5461 222.302 88.3207 221.739C88.0954 221.176 87.7791 220.747 87.3717 220.452C86.9731 220.157 86.5094 220.01 85.9807 220.01C85.4521 220.01 84.9841 220.157 84.5767 220.452C84.1781 220.747 83.8661 221.176 83.6407 221.739C83.4154 222.302 83.3027 222.983 83.3027 223.78C83.3027 224.577 83.4154 225.258 83.6407 225.821C83.8661 226.384 84.1781 226.813 84.5767 227.108C84.9841 227.403 85.4521 227.55 85.9807 227.55Z" fill="#4F4F4F"/>
<path d="M126.003 227.432V228.264H119.62V227.601L123.403 223.896C123.88 223.428 124.201 223.025 124.365 222.687C124.539 222.34 124.625 221.993 124.625 221.647C124.625 221.109 124.439 220.693 124.066 220.399C123.702 220.095 123.178 219.944 122.493 219.944C121.427 219.944 120.6 220.282 120.01 220.958L119.347 220.386C119.703 219.97 120.153 219.649 120.699 219.424C121.254 219.198 121.878 219.086 122.571 219.086C123.499 219.086 124.231 219.307 124.768 219.749C125.314 220.182 125.587 220.78 125.587 221.543C125.587 222.011 125.483 222.461 125.275 222.895C125.067 223.328 124.673 223.826 124.092 224.39L120.998 227.432H126.003ZM129.7 219.164V228.264H128.764V219.996H126.619V219.164H129.7Z" fill="#3A4244"/>
<rect x="195" y="244" width="30" height="30" rx="4" fill="#9C0A35"/>
<path d="M167.001 227.432V228.264H160.618V227.601L164.401 223.896C164.878 223.428 165.199 223.025 165.363 222.687C165.537 222.34 165.623 221.993 165.623 221.647C165.623 221.109 165.437 220.693 165.064 220.399C164.7 220.095 164.176 219.944 163.491 219.944C162.425 219.944 161.598 220.282 161.008 220.958L160.345 220.386C160.701 219.97 161.151 219.649 161.697 219.424C162.252 219.198 162.876 219.086 163.569 219.086C164.497 219.086 165.229 219.307 165.766 219.749C166.312 220.182 166.585 220.78 166.585 221.543C166.585 222.011 166.481 222.461 166.273 222.895C166.065 223.328 165.671 223.826 165.09 224.39L161.996 227.432H167.001ZM174.39 227.432V228.264H168.007V227.601L171.79 223.896C172.267 223.428 172.587 223.025 172.752 222.687C172.925 222.34 173.012 221.993 173.012 221.647C173.012 221.109 172.826 220.693 172.453 220.399C172.089 220.095 171.565 219.944 170.88 219.944C169.814 219.944 168.986 220.282 168.397 220.958L167.734 220.386C168.089 219.97 168.54 219.649 169.086 219.424C169.641 219.198 170.265 219.086 170.958 219.086C171.885 219.086 172.618 219.307 173.155 219.749C173.701 220.182 173.974 220.78 173.974 221.543C173.974 222.011 173.87 222.461 173.662 222.895C173.454 223.328 173.06 223.826 172.479 224.39L169.385 227.432H174.39Z" fill="#4F4F4F"/>
<path d="M209.37 227.432V228.264H202.987V227.601L206.77 223.896C207.247 223.428 207.568 223.025 207.732 222.687C207.906 222.34 207.992 221.993 207.992 221.647C207.992 221.109 207.806 220.693 207.433 220.399C207.069 220.095 206.545 219.944 205.86 219.944C204.794 219.944 203.967 220.282 203.377 220.958L202.714 220.386C203.07 219.97 203.52 219.649 204.066 219.424C204.621 219.198 205.245 219.086 205.938 219.086C206.866 219.086 207.598 219.307 208.135 219.749C208.681 220.182 208.954 220.78 208.954 221.543C208.954 222.011 208.85 222.461 208.642 222.895C208.434 223.328 208.04 223.826 207.459 224.39L204.365 227.432H209.37ZM213.639 223.064C214.592 223.116 215.316 223.376 215.81 223.844C216.313 224.303 216.564 224.905 216.564 225.651C216.564 226.171 216.438 226.634 216.187 227.042C215.936 227.44 215.563 227.757 215.069 227.991C214.575 228.225 213.973 228.342 213.262 228.342C212.603 228.342 211.979 228.238 211.39 228.03C210.809 227.813 210.341 227.527 209.986 227.172L210.441 226.431C210.744 226.743 211.147 226.998 211.65 227.198C212.153 227.388 212.69 227.484 213.262 227.484C214.007 227.484 214.584 227.323 214.991 227.003C215.398 226.673 215.602 226.223 215.602 225.651C215.602 225.087 215.398 224.645 214.991 224.325C214.584 224.004 213.968 223.844 213.145 223.844H212.495V223.155L215.017 219.996H210.363V219.164H216.213V219.827L213.639 223.064Z" fill="#4F4F4F"/>
<path d="M250.738 227.432V228.264H244.355V227.601L248.138 223.896C248.615 223.428 248.935 223.025 249.1 222.687C249.273 222.34 249.36 221.993 249.36 221.647C249.36 221.109 249.174 220.693 248.801 220.399C248.437 220.095 247.913 219.944 247.228 219.944C246.162 219.944 245.334 220.282 244.745 220.958L244.082 220.386C244.437 219.97 244.888 219.649 245.434 219.424C245.989 219.198 246.613 219.086 247.306 219.086C248.233 219.086 248.966 219.307 249.503 219.749C250.049 220.182 250.322 220.78 250.322 221.543C250.322 222.011 250.218 222.461 250.01 222.895C249.802 223.328 249.408 223.826 248.827 224.39L245.733 227.432H250.738ZM259.343 225.872H257.523V228.264H256.587V225.872H251.452V225.196L256.275 219.164H257.315L252.661 225.04H256.613V222.934H257.523V225.04H259.343V225.872Z" fill="#9C0A35"/>
<path d="M287.547 228.264V227.38L291.252 223.805C291.582 223.493 291.824 223.22 291.98 222.986C292.145 222.743 292.253 222.522 292.305 222.323C292.366 222.115 292.396 221.915 292.396 221.725C292.396 221.257 292.232 220.888 291.902 220.62C291.573 220.351 291.092 220.217 290.459 220.217C289.974 220.217 289.536 220.299 289.146 220.464C288.756 220.62 288.418 220.867 288.132 221.205L287.248 220.438C287.595 219.996 288.059 219.658 288.639 219.424C289.229 219.181 289.874 219.06 290.576 219.06C291.209 219.06 291.759 219.164 292.227 219.372C292.695 219.571 293.055 219.861 293.306 220.243C293.566 220.624 293.696 221.075 293.696 221.595C293.696 221.889 293.657 222.18 293.579 222.466C293.501 222.752 293.354 223.055 293.137 223.376C292.921 223.696 292.609 224.056 292.201 224.455L288.899 227.64L288.587 227.133H294.086V228.264H287.547ZM298.093 228.368C297.452 228.368 296.828 228.268 296.221 228.069C295.623 227.869 295.134 227.601 294.752 227.263L295.35 226.236C295.654 226.522 296.048 226.756 296.533 226.938C297.019 227.12 297.534 227.211 298.08 227.211C298.774 227.211 299.307 227.063 299.679 226.769C300.052 226.474 300.238 226.08 300.238 225.586C300.238 225.248 300.156 224.953 299.991 224.702C299.827 224.45 299.541 224.26 299.133 224.13C298.735 223.991 298.184 223.922 297.482 223.922H295.415L295.896 219.164H301.031V220.295H296.377L297.053 219.658L296.676 223.415L296 222.791H297.755C298.665 222.791 299.398 222.908 299.952 223.142C300.507 223.376 300.91 223.701 301.161 224.117C301.413 224.524 301.538 224.996 301.538 225.534C301.538 226.054 301.413 226.53 301.161 226.964C300.91 227.388 300.529 227.731 300.017 227.991C299.515 228.242 298.873 228.368 298.093 228.368Z" fill="#9C0A35"/>
<path d="M39.2289 263.098V263.93H32.8459V263.267L36.6289 259.562C37.1055 259.094 37.4262 258.691 37.5909 258.353C37.7642 258.006 37.8509 257.659 37.8509 257.313C37.8509 256.775 37.6645 256.359 37.2919 256.065C36.9279 255.761 36.4035 255.61 35.7189 255.61C34.6529 255.61 33.8252 255.948 33.2359 256.624L32.5729 256.052C32.9282 255.636 33.3789 255.315 33.9249 255.09C34.4795 254.864 35.1035 254.752 35.7969 254.752C36.7242 254.752 37.4565 254.973 37.9939 255.415C38.5399 255.848 38.8129 256.446 38.8129 257.209C38.8129 257.677 38.7089 258.127 38.5009 258.561C38.2929 258.994 37.8985 259.492 37.3179 260.056L34.2239 263.098H39.2289ZM44.1228 258.483C44.7208 258.483 45.2494 258.595 45.7088 258.821C46.1768 259.046 46.5408 259.367 46.8008 259.783C47.0608 260.19 47.1908 260.667 47.1908 261.213C47.1908 261.767 47.0564 262.257 46.7878 262.682C46.5191 263.106 46.1464 263.436 45.6698 263.67C45.2018 263.895 44.6731 264.008 44.0838 264.008C42.8791 264.008 41.9561 263.613 41.3148 262.825C40.6734 262.027 40.3528 260.905 40.3528 259.458C40.3528 258.444 40.5261 257.586 40.8728 256.884C41.2194 256.182 41.7048 255.653 42.3288 255.298C42.9528 254.934 43.6808 254.752 44.5128 254.752C45.4141 254.752 46.1334 254.916 46.6708 255.246L46.2938 256C45.8604 255.714 45.2711 255.571 44.5258 255.571C43.5204 255.571 42.7318 255.891 42.1598 256.533C41.5878 257.165 41.3018 258.088 41.3018 259.302C41.3018 259.518 41.3148 259.765 41.3408 260.043C41.5661 259.549 41.9258 259.167 42.4198 258.899C42.9138 258.621 43.4814 258.483 44.1228 258.483ZM44.0448 263.215C44.7034 263.215 45.2364 263.037 45.6438 262.682C46.0598 262.318 46.2678 261.837 46.2678 261.239C46.2678 260.641 46.0598 260.164 45.6438 259.809C45.2364 259.453 44.6818 259.276 43.9798 259.276C43.5204 259.276 43.1131 259.362 42.7578 259.536C42.4111 259.709 42.1381 259.947 41.9388 260.251C41.7394 260.554 41.6398 260.892 41.6398 261.265C41.6398 261.611 41.7308 261.932 41.9128 262.227C42.1034 262.521 42.3808 262.76 42.7448 262.942C43.1088 263.124 43.5421 263.215 44.0448 263.215Z" fill="#4F4F4F"/>
<path d="M82.2059 263.164V263.996H75.8229V263.333L79.6059 259.628C80.0826 259.16 80.4033 258.757 80.5679 258.419C80.7413 258.072 80.8279 257.726 80.8279 257.379C80.8279 256.842 80.6416 256.426 80.2689 256.131C79.9049 255.828 79.3806 255.676 78.6959 255.676C77.6299 255.676 76.8023 256.014 76.2129 256.69L75.5499 256.118C75.9053 255.702 76.3559 255.381 76.9019 255.156C77.4566 254.931 78.0806 254.818 78.7739 254.818C79.7013 254.818 80.4336 255.039 80.9709 255.481C81.5169 255.914 81.7899 256.512 81.7899 257.275C81.7899 257.743 81.6859 258.194 81.4779 258.627C81.2699 259.06 80.8756 259.559 80.2949 260.122L77.2009 263.164H82.2059ZM89.7518 254.896V255.559L85.9428 263.996H84.9288L88.6728 255.728H83.9928V257.431H83.0698V254.896H89.7518Z" fill="#4F4F4F"/>
<path d="M123.707 263.098V263.93H117.324V263.267L121.107 259.562C121.584 259.094 121.904 258.691 122.069 258.353C122.242 258.006 122.329 257.659 122.329 257.313C122.329 256.775 122.143 256.359 121.77 256.065C121.406 255.761 120.882 255.61 120.197 255.61C119.131 255.61 118.303 255.948 117.714 256.624L117.051 256.052C117.406 255.636 117.857 255.315 118.403 255.09C118.958 254.864 119.582 254.752 120.275 254.752C121.202 254.752 121.935 254.973 122.472 255.415C123.018 255.848 123.291 256.446 123.291 257.209C123.291 257.677 123.187 258.127 122.979 258.561C122.771 258.994 122.377 259.492 121.796 260.056L118.702 263.098H123.707ZM130.095 259.159C130.667 259.349 131.104 259.635 131.408 260.017C131.72 260.398 131.876 260.857 131.876 261.395C131.876 261.923 131.733 262.387 131.447 262.786C131.161 263.176 130.749 263.479 130.212 263.696C129.683 263.904 129.059 264.008 128.34 264.008C127.248 264.008 126.39 263.774 125.766 263.306C125.142 262.838 124.83 262.201 124.83 261.395C124.83 260.849 124.977 260.389 125.272 260.017C125.575 259.635 126.013 259.349 126.585 259.159C126.117 258.977 125.761 258.717 125.519 258.379C125.276 258.032 125.155 257.625 125.155 257.157C125.155 256.42 125.441 255.835 126.013 255.402C126.593 254.968 127.369 254.752 128.34 254.752C128.981 254.752 129.54 254.851 130.017 255.051C130.502 255.241 130.879 255.519 131.148 255.883C131.416 256.247 131.551 256.671 131.551 257.157C131.551 257.625 131.425 258.032 131.174 258.379C130.922 258.717 130.563 258.977 130.095 259.159ZM126.091 257.183C126.091 257.685 126.29 258.084 126.689 258.379C127.087 258.673 127.638 258.821 128.34 258.821C129.042 258.821 129.592 258.673 129.991 258.379C130.398 258.084 130.602 257.69 130.602 257.196C130.602 256.684 130.394 256.281 129.978 255.987C129.57 255.692 129.024 255.545 128.34 255.545C127.646 255.545 127.096 255.692 126.689 255.987C126.29 256.281 126.091 256.68 126.091 257.183ZM128.34 263.215C129.146 263.215 129.774 263.05 130.225 262.721C130.684 262.391 130.914 261.945 130.914 261.382C130.914 260.818 130.684 260.376 130.225 260.056C129.774 259.726 129.146 259.562 128.34 259.562C127.542 259.562 126.914 259.726 126.455 260.056C126.004 260.376 125.779 260.818 125.779 261.382C125.779 261.954 126.004 262.404 126.455 262.734C126.905 263.054 127.534 263.215 128.34 263.215Z" fill="#4F4F4F"/>
<path d="M166.235 263.098V263.93H159.852V263.267L163.635 259.562C164.111 259.094 164.432 258.691 164.597 258.353C164.77 258.006 164.857 257.659 164.857 257.313C164.857 256.775 164.67 256.359 164.298 256.065C163.934 255.761 163.409 255.61 162.725 255.61C161.659 255.61 160.831 255.948 160.242 256.624L159.579 256.052C159.934 255.636 160.385 255.315 160.931 255.09C161.485 254.864 162.109 254.752 162.803 254.752C163.73 254.752 164.462 254.973 165 255.415C165.546 255.848 165.819 256.446 165.819 257.209C165.819 257.677 165.715 258.127 165.507 258.561C165.299 258.994 164.904 259.492 164.324 260.056L161.23 263.098H166.235ZM170.243 254.752C171.448 254.752 172.371 255.15 173.012 255.948C173.654 256.736 173.974 257.854 173.974 259.302C173.974 260.316 173.801 261.174 173.454 261.876C173.108 262.578 172.622 263.111 171.998 263.475C171.374 263.83 170.646 264.008 169.814 264.008C168.913 264.008 168.194 263.843 167.656 263.514L168.033 262.76C168.467 263.046 169.056 263.189 169.801 263.189C170.807 263.189 171.595 262.872 172.167 262.24C172.739 261.598 173.025 260.671 173.025 259.458C173.025 259.232 173.012 258.985 172.986 258.717C172.761 259.211 172.401 259.596 171.907 259.874C171.413 260.142 170.846 260.277 170.204 260.277C169.606 260.277 169.073 260.164 168.605 259.939C168.146 259.713 167.786 259.397 167.526 258.99C167.266 258.574 167.136 258.093 167.136 257.547C167.136 256.992 167.271 256.502 167.539 256.078C167.808 255.653 168.176 255.328 168.644 255.103C169.121 254.869 169.654 254.752 170.243 254.752ZM170.347 259.484C170.807 259.484 171.21 259.397 171.556 259.224C171.912 259.05 172.189 258.812 172.388 258.509C172.588 258.205 172.687 257.867 172.687 257.495C172.687 257.148 172.592 256.827 172.401 256.533C172.219 256.238 171.946 256 171.582 255.818C171.218 255.636 170.785 255.545 170.282 255.545C169.624 255.545 169.086 255.727 168.67 256.091C168.263 256.446 168.059 256.923 168.059 257.521C168.059 258.119 168.263 258.595 168.67 258.951C169.086 259.306 169.645 259.484 170.347 259.484Z" fill="#4F4F4F"/>
<path d="M209.757 263.93V255.22L210.173 255.662H207.612V254.83H210.693V263.93H209.757Z" fill="#F2F2F2"/>
<path d="M254.883 263.098V263.93H248.5V263.267L252.283 259.562C252.76 259.094 253.08 258.691 253.245 258.353C253.418 258.006 253.505 257.659 253.505 257.313C253.505 256.775 253.319 256.359 252.946 256.065C252.582 255.761 252.058 255.61 251.373 255.61C250.307 255.61 249.479 255.948 248.89 256.624L248.227 256.052C248.582 255.636 249.033 255.315 249.579 255.09C250.134 254.864 250.758 254.752 251.451 254.752C252.378 254.752 253.111 254.973 253.648 255.415C254.194 255.848 254.467 256.446 254.467 257.209C254.467 257.677 254.363 258.127 254.155 258.561C253.947 258.994 253.553 259.492 252.972 260.056L249.878 263.098H254.883Z" fill="#828282"/>
<path d="M294.132 258.73C295.086 258.782 295.809 259.042 296.303 259.51C296.806 259.969 297.057 260.571 297.057 261.317C297.057 261.837 296.932 262.3 296.68 262.708C296.429 263.106 296.056 263.423 295.562 263.657C295.068 263.891 294.466 264.008 293.755 264.008C293.097 264.008 292.473 263.904 291.883 263.696C291.303 263.479 290.835 263.193 290.479 262.838L290.934 262.097C291.238 262.409 291.641 262.664 292.143 262.864C292.646 263.054 293.183 263.15 293.755 263.15C294.501 263.15 295.077 262.989 295.484 262.669C295.892 262.339 296.095 261.889 296.095 261.317C296.095 260.753 295.892 260.311 295.484 259.991C295.077 259.67 294.462 259.51 293.638 259.51H292.988V258.821L295.51 255.662H290.856V254.83H296.706V255.493L294.132 258.73Z" fill="#828282"/>
<g clip-path="url(#clip0_12_63963)">
<path d="M304 28L310 22L304 16" stroke="#4F4F4F" stroke-width="1.5" stroke-linecap="round" stroke-linejoin="round"/>
</g>
<path d="M222 19L228 25L234 19" stroke="#4F4F4F" stroke-width="1.5" stroke-linecap="round" stroke-linejoin="round"/>
<g clip-path="url(#clip1_12_63963)">
<path d="M31 28L25 22L31 16" stroke="#4F4F4F" stroke-width="1.5" stroke-linecap="round" stroke-linejoin="round"/>
</g>
<defs>
<clipPath id="clip0_12_63963">
<rect width="24" height="24" fill="white" transform="translate(295 10)"/>
</clipPath>
<clipPath id="clip1_12_63963">
<rect width="24" height="24" fill="white" transform="matrix(-1 0 0 1 40 10)"/>
</clipPath>
</defs>
</svg>
