<svg width="330" height="44" viewBox="0 0 335 44" fill="none" xmlns="http://www.w3.org/2000/svg">
<path d="M0 10C0 4.47715 4.47715 0 10 0H325C330.523 0 335 4.47715 335 10V34C335 39.5228 330.523 44 325 44H9.99999C4.47714 44 0 39.5228 0 34V10Z" fill="#4B4B64"/>
<g clip-path="url(#clip0_12_63567)">
<path d="M31.0942 17.6983C33.1366 19.7408 33.1366 23.0522 31.0942 25.0947C29.0517 27.1371 25.7403 27.1371 23.6978 25.0947C21.6554 23.0522 21.6554 19.7408 23.6978 17.6983C25.7403 15.6559 29.0517 15.6559 31.0942 17.6983Z" stroke="#828282" stroke-width="1.3" stroke-linecap="round" stroke-linejoin="round"/>
<path d="M33.8335 27.8335L31.0918 25.0918" stroke="#828282" stroke-width="1.3" stroke-linecap="round" stroke-linejoin="round"/>
</g>
<path d="M55.898 17.2V27H54.876V18.096H48.674V27H47.652V17.2H55.898ZM62.0047 27.07C61.2954 27.07 60.6561 26.9113 60.0867 26.594C59.5174 26.2673 59.0694 25.8193 58.7427 25.25C58.4161 24.6807 58.2527 24.0367 58.2527 23.318C58.2527 22.5993 58.4161 21.9553 58.7427 21.386C59.0694 20.8167 59.5174 20.3733 60.0867 20.056C60.6561 19.7387 61.2954 19.58 62.0047 19.58C62.7141 19.58 63.3534 19.7387 63.9227 20.056C64.4921 20.3733 64.9354 20.8167 65.2527 21.386C65.5794 21.9553 65.7427 22.5993 65.7427 23.318C65.7427 24.0367 65.5794 24.6807 65.2527 25.25C64.9354 25.8193 64.4921 26.2673 63.9227 26.594C63.3534 26.9113 62.7141 27.07 62.0047 27.07ZM62.0047 26.188C62.5274 26.188 62.9941 26.0713 63.4047 25.838C63.8247 25.5953 64.1514 25.2547 64.3847 24.816C64.6181 24.3773 64.7347 23.878 64.7347 23.318C64.7347 22.758 64.6181 22.2587 64.3847 21.82C64.1514 21.3813 63.8247 21.0453 63.4047 20.812C62.9941 20.5693 62.5274 20.448 62.0047 20.448C61.4821 20.448 61.0107 20.5693 60.5907 20.812C60.1801 21.0453 59.8534 21.3813 59.6107 21.82C59.3774 22.2587 59.2607 22.758 59.2607 23.318C59.2607 23.878 59.3774 24.3773 59.6107 24.816C59.8534 25.2547 60.1801 25.5953 60.5907 25.838C61.0107 26.0713 61.4821 26.188 62.0047 26.188ZM67.8671 19.636H68.8611V25.488L73.7751 19.636H74.6571V27H73.6631V21.148L68.7631 27H67.8671V19.636ZM80.5858 27.07C79.8578 27.07 79.2045 26.9113 78.6258 26.594C78.0565 26.2767 77.6085 25.8333 77.2818 25.264C76.9551 24.6853 76.7918 24.0367 76.7918 23.318C76.7918 22.5993 76.9551 21.9553 77.2818 21.386C77.6085 20.8167 78.0565 20.3733 78.6258 20.056C79.2045 19.7387 79.8578 19.58 80.5858 19.58C81.2205 19.58 81.7851 19.706 82.2798 19.958C82.7838 20.2007 83.1805 20.56 83.4698 21.036L82.7278 21.54C82.4851 21.176 82.1771 20.9053 81.8038 20.728C81.4305 20.5413 81.0245 20.448 80.5858 20.448C80.0538 20.448 79.5731 20.5693 79.1438 20.812C78.7238 21.0453 78.3925 21.3813 78.1498 21.82C77.9165 22.2587 77.7998 22.758 77.7998 23.318C77.7998 23.8873 77.9165 24.3913 78.1498 24.83C78.3925 25.2593 78.7238 25.5953 79.1438 25.838C79.5731 26.0713 80.0538 26.188 80.5858 26.188C81.0245 26.188 81.4305 26.0993 81.8038 25.922C82.1771 25.7447 82.4851 25.474 82.7278 25.11L83.4698 25.614C83.1805 26.09 82.7838 26.454 82.2798 26.706C81.7758 26.9487 81.2111 27.07 80.5858 27.07ZM88.0685 23.724H86.3885V27H85.3945V19.636H86.3885V22.87H88.0825L90.6725 19.636H91.7505L88.8525 23.206L91.9605 27H90.7845L88.0685 23.724ZM99.8673 23.724H98.1873V27H97.1933V19.636H98.1873V22.87H99.8813L102.471 19.636H103.549L100.651 23.206L103.759 27H102.583L99.8673 23.724ZM111.348 19.636V27H110.354V20.518H106.826L106.728 22.338C106.653 23.8687 106.476 25.0447 106.196 25.866C105.916 26.6873 105.417 27.098 104.698 27.098C104.502 27.098 104.264 27.0607 103.984 26.986L104.054 26.132C104.222 26.1693 104.339 26.188 104.404 26.188C104.787 26.188 105.076 26.0107 105.272 25.656C105.468 25.3013 105.599 24.8627 105.664 24.34C105.729 23.8173 105.785 23.1267 105.832 22.268L105.958 19.636H111.348ZM114.174 19.636H115.168V25.488L120.082 19.636H120.964V27H119.97V21.148L115.07 27H114.174V19.636ZM130.252 23.626H124.092C124.148 24.3913 124.442 25.012 124.974 25.488C125.506 25.9547 126.178 26.188 126.99 26.188C127.448 26.188 127.868 26.1087 128.25 25.95C128.633 25.782 128.964 25.5393 129.244 25.222L129.804 25.866C129.478 26.258 129.067 26.5567 128.572 26.762C128.087 26.9673 127.55 27.07 126.962 27.07C126.206 27.07 125.534 26.9113 124.946 26.594C124.368 26.2673 123.915 25.8193 123.588 25.25C123.262 24.6807 123.098 24.0367 123.098 23.318C123.098 22.5993 123.252 21.9553 123.56 21.386C123.878 20.8167 124.307 20.3733 124.848 20.056C125.399 19.7387 126.015 19.58 126.696 19.58C127.378 19.58 127.989 19.7387 128.53 20.056C129.072 20.3733 129.496 20.8167 129.804 21.386C130.112 21.946 130.266 22.59 130.266 23.318L130.252 23.626ZM126.696 20.434C125.987 20.434 125.39 20.6627 124.904 21.12C124.428 21.568 124.158 22.156 124.092 22.884H129.314C129.249 22.156 128.974 21.568 128.488 21.12C128.012 20.6627 127.415 20.434 126.696 20.434ZM132.467 19.636H133.461V22.898H138.095V19.636H139.089V27H138.095V23.752H133.461V27H132.467V19.636ZM147.094 20.518H144.308V27H143.314V20.518H140.528V19.636H147.094V20.518ZM151.065 19.58C152.027 19.58 152.764 19.8227 153.277 20.308C153.791 20.784 154.047 21.4933 154.047 22.436V27H153.095V25.852C152.871 26.2347 152.54 26.5333 152.101 26.748C151.672 26.9627 151.159 27.07 150.561 27.07C149.74 27.07 149.087 26.874 148.601 26.482C148.116 26.09 147.873 25.572 147.873 24.928C147.873 24.3027 148.097 23.7987 148.545 23.416C149.003 23.0333 149.726 22.842 150.715 22.842H153.053V22.394C153.053 21.7593 152.876 21.2787 152.521 20.952C152.167 20.616 151.649 20.448 150.967 20.448C150.501 20.448 150.053 20.5273 149.623 20.686C149.194 20.8353 148.825 21.0453 148.517 21.316L148.069 20.574C148.443 20.2567 148.891 20.014 149.413 19.846C149.936 19.6687 150.487 19.58 151.065 19.58ZM150.715 26.286C151.275 26.286 151.756 26.16 152.157 25.908C152.559 25.6467 152.857 25.2733 153.053 24.788V23.584H150.743C149.483 23.584 148.853 24.0227 148.853 24.9C148.853 25.3293 149.017 25.67 149.343 25.922C149.67 26.1647 150.127 26.286 150.715 26.286ZM166.965 19.636V27H165.971V20.518H161.351V27H160.357V19.636H166.965ZM172.829 27.07C172.12 27.07 171.48 26.9113 170.911 26.594C170.342 26.2673 169.894 25.8193 169.567 25.25C169.24 24.6807 169.077 24.0367 169.077 23.318C169.077 22.5993 169.24 21.9553 169.567 21.386C169.894 20.8167 170.342 20.3733 170.911 20.056C171.48 19.7387 172.12 19.58 172.829 19.58C173.538 19.58 174.178 19.7387 174.747 20.056C175.316 20.3733 175.76 20.8167 176.077 21.386C176.404 21.9553 176.567 22.5993 176.567 23.318C176.567 24.0367 176.404 24.6807 176.077 25.25C175.76 25.8193 175.316 26.2673 174.747 26.594C174.178 26.9113 173.538 27.07 172.829 27.07ZM172.829 26.188C173.352 26.188 173.818 26.0713 174.229 25.838C174.649 25.5953 174.976 25.2547 175.209 24.816C175.442 24.3773 175.559 23.878 175.559 23.318C175.559 22.758 175.442 22.2587 175.209 21.82C174.976 21.3813 174.649 21.0453 174.229 20.812C173.818 20.5693 173.352 20.448 172.829 20.448C172.306 20.448 171.835 20.5693 171.415 20.812C171.004 21.0453 170.678 21.3813 170.435 21.82C170.202 22.2587 170.085 22.758 170.085 23.318C170.085 23.878 170.202 24.3773 170.435 24.816C170.678 25.2547 171.004 25.5953 171.415 25.838C171.835 26.0713 172.306 26.188 172.829 26.188ZM182.355 19.636H183.349V25.488L188.263 19.636H189.145V27H188.151V21.148L183.251 27H182.355V19.636ZM200.226 19.636V27H199.316V21.176L196.334 26.104H195.886L192.904 21.162V27H191.994V19.636H193.002L196.124 24.942L199.302 19.636H200.226ZM209.495 23.626H203.335C203.391 24.3913 203.685 25.012 204.217 25.488C204.749 25.9547 205.421 26.188 206.233 26.188C206.69 26.188 207.11 26.1087 207.493 25.95C207.875 25.782 208.207 25.5393 208.487 25.222L209.047 25.866C208.72 26.258 208.309 26.5567 207.815 26.762C207.329 26.9673 206.793 27.07 206.205 27.07C205.449 27.07 204.777 26.9113 204.189 26.594C203.61 26.2673 203.157 25.8193 202.831 25.25C202.504 24.6807 202.341 24.0367 202.341 23.318C202.341 22.5993 202.495 21.9553 202.803 21.386C203.12 20.8167 203.549 20.3733 204.091 20.056C204.641 19.7387 205.257 19.58 205.939 19.58C206.62 19.58 207.231 19.7387 207.773 20.056C208.314 20.3733 208.739 20.8167 209.047 21.386C209.355 21.946 209.509 22.59 209.509 23.318L209.495 23.626ZM205.939 20.434C205.229 20.434 204.632 20.6627 204.147 21.12C203.671 21.568 203.4 22.156 203.335 22.884H208.557C208.491 22.156 208.216 21.568 207.731 21.12C207.255 20.6627 206.657 20.434 205.939 20.434ZM211.709 19.636H212.703V22.898H217.337V19.636H218.331V27H217.337V23.752H212.703V27H211.709V19.636ZM221.156 19.636H222.15V25.488L227.064 19.636H227.946V27H226.952V21.148L222.052 27H221.156V19.636Z" fill="#828282"/>
<defs>
<clipPath id="clip0_12_63567">
<rect width="20" height="20" fill="white" transform="translate(18 12)"/>
</clipPath>
</defs>
</svg>
