<svg width="18" height="18" viewBox="0 0 18 18" fill="none" xmlns="http://www.w3.org/2000/svg">
<rect width="18" height="18" rx="9" fill="#9C0A35"/>
<path d="M6.11886 13V11.845L9.08886 9.04C9.32353 8.82733 9.49586 8.63667 9.60586 8.468C9.71586 8.29933 9.78919 8.14533 9.82586 8.006C9.86986 7.86667 9.89186 7.73833 9.89186 7.621C9.89186 7.313 9.78553 7.07833 9.57286 6.917C9.36753 6.74833 9.06319 6.664 8.65986 6.664C8.33719 6.664 8.03653 6.72633 7.75786 6.851C7.48653 6.97567 7.25553 7.17 7.06486 7.434L5.76686 6.598C6.06019 6.158 6.47086 5.80967 6.99886 5.553C7.52686 5.29633 8.13553 5.168 8.82486 5.168C9.39686 5.168 9.89553 5.26333 10.3209 5.454C10.7535 5.63733 11.0872 5.89767 11.3219 6.235C11.5639 6.57233 11.6849 6.97567 11.6849 7.445C11.6849 7.69433 11.6519 7.94367 11.5859 8.193C11.5272 8.435 11.4025 8.69167 11.2119 8.963C11.0285 9.23433 10.7572 9.53867 10.3979 9.876L7.93386 12.197L7.59286 11.548H11.9379V13H6.11886Z" fill="white"/>
</svg>
