<svg width="24" height="24" viewBox="0 0 24 24" fill="none" xmlns="http://www.w3.org/2000/svg">
<path d="M16.3748 3.25082C17.5342 3.25428 18.6451 3.71636 19.4648 4.53614C20.2846 5.35593 20.7467 6.46679 20.7502 7.62613V16.3758C20.7467 17.5352 20.2846 18.646 19.4648 19.4658C18.6451 20.2856 17.5342 20.7477 16.3748 20.7511H7.62516C6.46582 20.7477 5.35495 20.2856 4.53517 19.4658C3.71539 18.646 3.25331 17.5352 3.24984 16.3758V7.62613C3.25331 6.46679 3.71539 5.35593 4.53517 4.53614C5.35495 3.71636 6.46582 3.25428 7.62516 3.25082H16.3748ZM16.3748 1.50098H7.62516C4.25625 1.50098 1.5 4.25723 1.5 7.62613V16.3758C1.5 19.7447 4.25625 22.501 7.62516 22.501H16.3748C19.7437 22.501 22.5 19.7447 22.5 16.3758V7.62613C22.5 4.25723 19.7437 1.50098 16.3748 1.50098Z" fill="#9C0A35" stroke="#9C0A35" stroke-width="0.5"/>
<path d="M17.6913 7.6335C17.4309 7.6335 17.1764 7.5563 16.96 7.41167C16.7435 7.26703 16.5748 7.06146 16.4752 6.82095C16.3756 6.58043 16.3495 6.31578 16.4003 6.06045C16.4511 5.80512 16.5764 5.57058 16.7605 5.3865C16.9446 5.20242 17.1791 5.07706 17.4345 5.02627C17.6898 4.97548 17.9545 5.00155 18.195 5.10117C18.4355 5.2008 18.6411 5.3695 18.7857 5.58596C18.9303 5.80242 19.0075 6.0569 19.0075 6.31724C19.0079 6.49019 18.9741 6.66152 18.9081 6.82139C18.8421 6.98125 18.7451 7.1265 18.6228 7.2488C18.5005 7.3711 18.3553 7.46804 18.1954 7.53406C18.0355 7.60007 17.8642 7.63387 17.6913 7.6335Z" fill="#9C0A35"/>
<path d="M12 8.49936C12.6923 8.49936 13.369 8.70464 13.9446 9.08924C14.5202 9.47384 14.9688 10.0205 15.2337 10.6601C15.4986 11.2996 15.568 12.0034 15.4329 12.6824C15.2978 13.3613 14.9645 13.985 14.475 14.4745C13.9855 14.964 13.3618 15.2974 12.6828 15.4324C12.0039 15.5675 11.3001 15.4982 10.6606 15.2332C10.021 14.9683 9.47433 14.5197 9.08973 13.9441C8.70513 13.3685 8.49985 12.6918 8.49985 11.9995C8.50084 11.0715 8.86992 10.1818 9.52611 9.52562C10.1823 8.86943 11.072 8.50035 12 8.49936ZM12 6.74951C10.9617 6.74951 9.94662 7.05742 9.08326 7.6343C8.2199 8.21117 7.54699 9.03111 7.14963 9.99042C6.75227 10.9497 6.64831 12.0053 6.85088 13.0237C7.05345 14.0421 7.55347 14.9776 8.28769 15.7118C9.02192 16.446 9.95738 16.9461 10.9758 17.1486C11.9942 17.3512 13.0498 17.2472 14.0091 16.8499C14.9684 16.4525 15.7883 15.7796 16.3652 14.9163C16.9421 14.0529 17.25 13.0379 17.25 11.9995C17.25 10.6071 16.6969 9.27177 15.7123 8.2872C14.7277 7.30264 13.3924 6.74951 12 6.74951Z" fill="#9C0A35"/>
</svg>
