<svg width="47" height="47" viewBox="0 0 47 47" fill="none" xmlns="http://www.w3.org/2000/svg">
<path d="M16.4688 12.7595C16.4688 11.4018 16.4688 10.7229 16.7432 10.1262C17.0177 9.52943 17.5331 9.08763 18.564 8.20401L19.564 7.34687C21.4273 5.74974 22.359 4.95117 23.4688 4.95117C24.5785 4.95117 25.5102 5.74974 27.3735 7.34687L28.3735 8.20401C29.4044 9.08763 29.9198 9.52943 30.1943 10.1262C30.4687 10.7229 30.4688 11.4018 30.4688 12.7595V16.9999C30.4688 18.8856 30.4687 19.8284 29.883 20.4142C29.2972 20.9999 28.3544 20.9999 26.4688 20.9999H20.4687C18.5831 20.9999 17.6403 20.9999 17.0545 20.4142C16.4688 19.8284 16.4688 18.8856 16.4688 16.9999V12.7595Z" stroke="#828282" stroke-width="2"/>
<path d="M25.9688 21V16C25.9688 15.4477 25.521 15 24.9688 15H21.9688C21.4165 15 20.9688 15.4477 20.9688 16V21" stroke="#828282" stroke-width="2" stroke-linecap="round" stroke-linejoin="round"/>
<path d="M2.20283 44V36.3H7.09784V37.004H2.78583L2.99483 36.795L3.00583 44H2.20283ZM5.52526 43.989L5.58026 43.318C5.6316 43.3253 5.67926 43.3363 5.72326 43.351C5.7746 43.3583 5.8186 43.362 5.85526 43.362C6.08993 43.362 6.27693 43.274 6.41626 43.098C6.56293 42.922 6.67293 42.6873 6.74626 42.394C6.8196 42.1007 6.87093 41.7707 6.90026 41.404C6.9296 41.03 6.95526 40.656 6.97726 40.282L7.07626 38.225H11.3113V44H10.5303V38.676L10.7283 38.907H7.58226L7.76926 38.665L7.68126 40.337C7.65926 40.8357 7.61893 41.3123 7.56026 41.767C7.50893 42.2217 7.4246 42.6213 7.30726 42.966C7.19726 43.3107 7.04326 43.582 6.84526 43.78C6.64726 43.9707 6.39426 44.066 6.08626 44.066C5.99826 44.066 5.9066 44.0587 5.81126 44.044C5.72326 44.0293 5.62793 44.011 5.52526 43.989ZM17.1175 44V42.724L17.0845 42.515V40.381C17.0845 39.8897 16.9451 39.512 16.6665 39.248C16.3951 38.984 15.9881 38.852 15.4455 38.852C15.0715 38.852 14.7158 38.9143 14.3785 39.039C14.0411 39.1637 13.7551 39.3287 13.5205 39.534L13.1685 38.951C13.4618 38.7017 13.8138 38.511 14.2245 38.379C14.6351 38.2397 15.0678 38.17 15.5225 38.17C16.2705 38.17 16.8461 38.357 17.2495 38.731C17.6601 39.0977 17.8655 39.6587 17.8655 40.414V44H17.1175ZM15.1265 44.055C14.6938 44.055 14.3161 43.9853 13.9935 43.846C13.6781 43.6993 13.4361 43.5013 13.2675 43.252C13.0988 42.9953 13.0145 42.702 13.0145 42.372C13.0145 42.0713 13.0841 41.8 13.2235 41.558C13.3701 41.3087 13.6048 41.1107 13.9275 40.964C14.2575 40.81 14.6975 40.733 15.2475 40.733H17.2385V41.316H15.2695C14.7121 41.316 14.3235 41.415 14.1035 41.613C13.8908 41.811 13.7845 42.0567 13.7845 42.35C13.7845 42.68 13.9128 42.944 14.1695 43.142C14.4261 43.34 14.7855 43.439 15.2475 43.439C15.6875 43.439 16.0651 43.34 16.3805 43.142C16.7031 42.9367 16.9378 42.6433 17.0845 42.262L17.2605 42.801C17.1138 43.1823 16.8571 43.4867 16.4905 43.714C16.1311 43.9413 15.6765 44.055 15.1265 44.055ZM19.9445 44V38.225H22.4965C23.1492 38.225 23.6625 38.3497 24.0365 38.599C24.4179 38.8483 24.6085 39.215 24.6085 39.699C24.6085 40.1683 24.4289 40.5313 24.0695 40.788C23.7102 41.0373 23.2372 41.162 22.6505 41.162L22.8045 40.931C23.4939 40.931 23.9999 41.0593 24.3225 41.316C24.6452 41.5727 24.8065 41.943 24.8065 42.427C24.8065 42.9257 24.6232 43.3143 24.2565 43.593C23.8972 43.8643 23.3362 44 22.5735 44H19.9445ZM20.7035 43.384H22.5405C23.0319 43.384 23.4022 43.307 23.6515 43.153C23.9082 42.9917 24.0365 42.735 24.0365 42.383C24.0365 42.031 23.9229 41.7743 23.6955 41.613C23.4682 41.4517 23.1089 41.371 22.6175 41.371H20.7035V43.384ZM20.7035 40.788H22.4415C22.8889 40.788 23.2299 40.7037 23.4645 40.535C23.7065 40.3663 23.8275 40.1207 23.8275 39.798C23.8275 39.4753 23.7065 39.2333 23.4645 39.072C23.2299 38.9107 22.8889 38.83 22.4415 38.83H20.7035V40.788ZM26.6369 44V38.225H27.4179V40.777H31.0589V38.225H31.8399V44H31.0589V41.448H27.4179V44H26.6369ZM37.6458 44V42.724L37.6128 42.515V40.381C37.6128 39.8897 37.4734 39.512 37.1948 39.248C36.9234 38.984 36.5164 38.852 35.9738 38.852C35.5998 38.852 35.2441 38.9143 34.9068 39.039C34.5694 39.1637 34.2834 39.3287 34.0488 39.534L33.6968 38.951C33.9901 38.7017 34.3421 38.511 34.7528 38.379C35.1634 38.2397 35.5961 38.17 36.0508 38.17C36.7988 38.17 37.3744 38.357 37.7778 38.731C38.1884 39.0977 38.3938 39.6587 38.3938 40.414V44H37.6458ZM35.6548 44.055C35.2221 44.055 34.8444 43.9853 34.5218 43.846C34.2064 43.6993 33.9644 43.5013 33.7958 43.252C33.6271 42.9953 33.5428 42.702 33.5428 42.372C33.5428 42.0713 33.6124 41.8 33.7518 41.558C33.8984 41.3087 34.1331 41.1107 34.4558 40.964C34.7858 40.81 35.2258 40.733 35.7758 40.733H37.7668V41.316H35.7978C35.2404 41.316 34.8518 41.415 34.6318 41.613C34.4191 41.811 34.3128 42.0567 34.3128 42.35C34.3128 42.68 34.4411 42.944 34.6978 43.142C34.9544 43.34 35.3138 43.439 35.7758 43.439C36.2158 43.439 36.5934 43.34 36.9088 43.142C37.2314 42.9367 37.4661 42.6433 37.6128 42.262L37.7888 42.801C37.6421 43.1823 37.3854 43.4867 37.0188 43.714C36.6594 43.9413 36.2048 44.055 35.6548 44.055ZM44.2019 44V41.921L44.3449 42.086H42.3869C41.6462 42.086 41.0669 41.9247 40.6489 41.602C40.2309 41.2793 40.0219 40.81 40.0219 40.194C40.0219 39.534 40.2455 39.0427 40.6929 38.72C41.1402 38.39 41.7379 38.225 42.4859 38.225H44.9169V44H44.2019ZM39.9779 44L41.5619 41.778H42.3759L40.8249 44H39.9779ZM44.2019 41.69V38.676L44.3449 38.907H42.5079C41.9725 38.907 41.5545 39.0097 41.2539 39.215C40.9605 39.4203 40.8139 39.754 40.8139 40.216C40.8139 41.074 41.3602 41.503 42.4529 41.503H44.3449L44.2019 41.69Z" fill="#828282"/>
</svg>
